<?xml version="1.0" encoding="UTF-8"?>
<!DOCTYPE svg PUBLIC "-//W3C//DTD SVG 1.1//EN" "http://www.w3.org/Graphics/SVG/1.1/DTD/svg11.dtd">
<svg xmlns="http://www.w3.org/2000/svg" version="1.1" width="512px" height="512px" style="shape-rendering:geometricPrecision; text-rendering:geometricPrecision; image-rendering:optimizeQuality; fill-rule:evenodd; clip-rule:evenodd" xmlns:xlink="http://www.w3.org/1999/xlink">
<g><path style="opacity:0.967" fill="#000000" d="M 511.5,100.5 C 511.5,106.167 511.5,111.833 511.5,117.5C 509.92,120.263 508.087,122.93 506,125.5C 406.139,225.694 305.973,325.527 205.5,425C 177.685,443.439 150.352,442.772 123.5,423C 83.6667,383.167 43.8333,343.333 4,303.5C 2.19914,300.563 0.699136,297.563 -0.5,294.5C -0.5,291.5 -0.5,288.5 -0.5,285.5C 5.01994,269.929 15.6866,264.762 31.5,270C 72.139,309.639 112.472,349.639 152.5,390C 160.621,395.495 168.954,395.828 177.5,391C 277.167,291.333 376.833,191.667 476.5,92C 490.961,83.777 502.627,86.6103 511.5,100.5 Z"/></g>
</svg>
