<svg width="81" height="58" viewBox="0 0 81 58" fill="none" xmlns="http://www.w3.org/2000/svg">
<path d="M14.8057 46.5396C6.33154 46.5396 0.84082 39.8428 0.84082 29.147C0.84082 18.5146 6.33154 11.7861 14.8057 11.7861C19.6299 11.7861 23.4385 14.2935 25.2158 18.0068H25.4062V0.20166H33.3091V46H25.5649V40.2554H25.438C23.5972 44.0322 19.7251 46.5396 14.8057 46.5396ZM17.186 18.2925C12.1079 18.2925 8.93408 22.5137 8.93408 29.1787C8.93408 35.8755 12.0762 40.0649 17.186 40.0649C22.1689 40.0649 25.438 35.8438 25.438 29.1787C25.438 22.5771 22.1689 18.2925 17.186 18.2925ZM52.3876 39.9062C55.2229 39.9062 57.5927 38.6473 59.497 36.1294C61.4013 33.5903 62.3534 30.4271 62.3534 26.6396C62.3534 24.016 61.7292 21.9635 60.4809 20.4824C59.2325 18.9801 57.5186 18.229 55.3393 18.229C53.3503 18.229 51.5624 18.8638 49.9755 20.1333C48.3886 21.4028 47.1719 23.0638 46.3256 25.1162C45.4792 27.1686 45.0561 29.4009 45.0561 31.813C45.0561 34.2251 45.7226 36.1823 47.0556 37.6846C48.4097 39.1657 50.1871 39.9062 52.3876 39.9062ZM39.1845 57.1084H31.5038L40.9936 12.2939H48.6107L47.4999 17.4673H47.6269C48.7694 15.6899 50.2823 14.2935 52.1654 13.2778C54.0486 12.241 56.0587 11.7227 58.1957 11.7227C61.8985 11.7227 64.8184 12.9816 66.9555 15.4995C69.1137 17.9963 70.1928 21.3817 70.1928 25.6558C70.1928 29.6125 69.4628 33.1883 68.0028 36.3833C66.564 39.5571 64.5645 42.0433 62.0043 43.8418C59.4652 45.6403 56.6194 46.5396 53.4667 46.5396C50.9488 46.5396 48.7589 45.9048 46.8969 44.6353C45.0349 43.3446 43.7759 41.6413 43.12 39.5254H42.9296L39.1845 57.1084ZM75.5603 46.3491C72.9895 46.3491 70.99 44.3496 70.99 41.7788C70.99 39.2397 72.9895 37.2085 75.5603 37.2085C78.0994 37.2085 80.0989 39.2397 80.0989 41.7788C80.0989 44.3496 78.0994 46.3491 75.5603 46.3491Z" fill="white"/>
</svg>
