<?xml version="1.0" encoding="UTF-8"?>
<!DOCTYPE svg PUBLIC "-//W3C//DTD SVG 1.1//EN" "http://www.w3.org/Graphics/SVG/1.1/DTD/svg11.dtd">
<svg xmlns="http://www.w3.org/2000/svg" version="1.1" width="512px" height="512px" style="shape-rendering:geometricPrecision; text-rendering:geometricPrecision; image-rendering:optimizeQuality; fill-rule:evenodd; clip-rule:evenodd" xmlns:xlink="http://www.w3.org/1999/xlink">
<g><path style="opacity:0.989" fill="#000000" d="M 511.5,99.5 C 511.5,104.167 511.5,108.833 511.5,113.5C 508.686,119.813 504.019,124.313 497.5,127C 336.167,127.667 174.833,127.667 13.5,127C 6.98101,124.313 2.31434,119.813 -0.5,113.5C -0.5,108.833 -0.5,104.167 -0.5,99.5C 2.05987,91.7802 7.39321,86.9469 15.5,85C 175.5,84.3333 335.5,84.3333 495.5,85C 503.607,86.9469 508.94,91.7802 511.5,99.5 Z"/></g>
<g><path style="opacity:0.968" fill="#000000" d="M 511.5,248.5 C 511.5,253.167 511.5,257.833 511.5,262.5C 508.165,269.997 502.498,274.831 494.5,277C 335.167,277.667 175.833,277.667 16.5,277C 8.50176,274.831 2.83509,269.997 -0.5,262.5C -0.5,257.833 -0.5,253.167 -0.5,248.5C 2.83509,241.003 8.50176,236.169 16.5,234C 175.833,233.333 335.167,233.333 494.5,234C 502.498,236.169 508.165,241.003 511.5,248.5 Z"/></g>
<g><path style="opacity:0.989" fill="#000000" d="M 511.5,397.5 C 511.5,402.167 511.5,406.833 511.5,411.5C 508.94,419.22 503.607,424.053 495.5,426C 335.5,426.667 175.5,426.667 15.5,426C 7.39321,424.053 2.05987,419.22 -0.5,411.5C -0.5,406.833 -0.5,402.167 -0.5,397.5C 2.31434,391.187 6.98101,386.687 13.5,384C 174.833,383.333 336.167,383.333 497.5,384C 504.019,386.687 508.686,391.187 511.5,397.5 Z"/></g>
</svg>
