<svg xmlns="http://www.w3.org/2000/svg" style="display: none;">
    <symbol id="create" viewBox="0 0 87 87">
        <path opacity="0.945" fill-rule="evenodd" clip-rule="evenodd" d="M69.6112 0.947266C79.9187 2.28923 85.7019 8.10303 86.9608 18.3887C83.6333 23.1443 80.0839 27.7341 76.3123 32.1582C63.5641 46.4976 50.07 60.114 35.8299 73.0078C30.9019 77.4477 25.7613 81.609 20.408 85.4922C14.6881 85.9728 8.96608 86.4318 3.24203 86.8691C1.55908 86.8998 0.73291 86.0736 0.763515 84.3906C1.17693 78.7258 1.63592 73.0651 2.14047 67.4082C3.04808 65.9499 4.02726 64.5425 5.07797 63.1855C20.934 44.3918 38.1614 26.9197 56.7596 10.7695C60.9208 7.30936 65.2046 4.03526 69.6112 0.947266ZM70.7127 5.16992C77.2577 6.54352 81.2967 10.4908 82.8299 17.0117C79.7687 21.3596 76.4947 25.5516 73.0077 29.5879C70.3533 22.4354 65.4269 17.6009 58.2284 15.084C62.2391 11.5598 66.4007 8.25509 70.7127 5.16992ZM54.3729 18.3887C62.4562 20.1686 67.5356 25.0645 69.6112 33.0762C69.4404 33.4628 69.2264 33.83 68.9686 34.1777C57.1154 47.1327 44.6617 59.4639 31.6073 71.1719C27.5443 74.8076 23.3217 78.2347 18.9393 81.4531C14.2918 81.9024 9.64075 82.3002 4.98617 82.6465C5.35112 77.994 5.74891 73.3429 6.17953 68.6934C8.98514 64.9816 11.9226 61.3709 14.992 57.8613C27.4211 43.9941 40.5481 30.8365 54.3729 18.3887Z"/>
    </symbol>

    <symbol id="arrowtr" viewBox="0 0 89 89">
        <path d="M83.4377 0H37.0835V3.70833H82.6701L0.0224609 86.356L2.64425 88.9778L85.2919 6.33013V51.9167H89.0002V5.5625C89.0002 2.49571 86.5045 0 83.4377 0Z"/>
    </symbol>   

    <symbol id="phone" viewBox="0 0 94 94">
        <path fill-rule="evenodd" clip-rule="evenodd" d="M17.5332 -0.0917969C19.002 -0.0917969 20.4707 -0.0917969 21.9395 -0.0917969C24.5193 0.479461 26.7531 1.70342 28.6406 3.58008C31.2278 6.97924 33.8593 10.3451 36.5352 13.6777C39.9371 18.5532 40.0596 23.5103 36.9023 28.5488C34.9917 30.8408 33.1253 33.1664 31.3027 35.5254C36.6804 48.0937 45.6458 57.0898 58.1992 62.5137C60.6023 60.7143 62.9583 58.8479 65.2676 56.9141C70.3061 53.7568 75.2632 53.8793 80.1387 57.2812C83.4713 59.9571 86.8371 62.5886 90.2363 65.1758C92.113 67.0633 93.3369 69.2971 93.9082 71.877C93.9082 73.2846 93.9082 74.692 93.9082 76.0996C93.4859 78.0046 92.7211 79.7794 91.6133 81.4238C89.443 84.0836 87.087 86.5621 84.5449 88.8594C80.0267 92.0688 75.0085 93.7518 69.4902 93.9082C68.8783 93.9082 68.2662 93.9082 67.6543 93.9082C59.3766 93.2201 51.6045 90.8029 44.3379 86.6562C28.6406 77.5684 16.248 65.1758 7.16016 49.4785C3.12871 42.3731 0.7114 34.7846 -0.0917969 26.7129C-0.0917969 25.7338 -0.0917969 24.7545 -0.0917969 23.7754C0.228231 17.3686 2.55375 11.7996 6.88477 7.06836C8.9043 5.32422 10.9238 3.58008 12.9434 1.83594C14.4034 0.982252 15.9333 0.339674 17.5332 -0.0917969ZM19.1855 7.80273C20.465 7.73214 21.5972 8.09933 22.582 8.9043C25.0637 12.2754 27.634 15.5801 30.293 18.8184C31.3059 20.3778 31.3672 21.969 30.4766 23.5918C27.8343 26.7358 25.3251 29.9792 22.9492 33.3223C22.6782 34.1624 22.6169 35.0192 22.7656 35.8926C29.2221 52.875 40.9414 64.5943 57.9238 71.0508C59.0963 71.2727 60.1978 71.0892 61.2285 70.5C64.3726 67.8577 67.6159 65.3485 70.959 62.9727C72.3908 62.5039 73.7373 62.6875 74.998 63.5234C78.2363 66.1824 81.541 68.7527 84.9121 71.2344C86.1984 72.9196 86.2902 74.6637 85.1875 76.4668C83.5724 78.3881 81.8896 80.2547 80.1387 82.0664C76.7892 84.6184 72.995 85.873 68.7559 85.8301C63.7627 85.6221 58.9892 84.49 54.4355 82.4336C38.6041 74.8044 25.8443 63.6358 16.1562 48.9277C13.3026 44.4438 11.0382 39.6704 9.36328 34.6074C7.55589 29.0278 7.55589 23.4587 9.36328 17.9004C10.2842 15.4737 11.7223 13.4236 13.6777 11.75C14.9556 10.7785 16.1796 9.73812 17.3496 8.62891C17.9376 8.26119 18.5496 7.9858 19.1855 7.80273Z"/>
        <path fill-rule="evenodd" clip-rule="evenodd" d="M53.5174 -0.0917969C55.1698 -0.0917969 56.8221 -0.0917969 58.4745 -0.0917969C73.3994 1.90778 84.1396 9.67992 90.6952 23.2246C92.3457 27.135 93.4166 31.174 93.9081 35.3418C93.9081 36.9941 93.9081 38.6465 93.9081 40.2988C92.5421 42.9881 90.4613 43.6918 87.6659 42.4102C86.8529 41.8425 86.3328 41.0774 86.1053 40.1152C85.7365 26.4243 79.4637 16.5408 67.287 10.4648C62.9477 8.63988 58.419 7.72192 53.701 7.71094C51.407 6.88781 50.4586 5.26607 50.8553 2.8457C51.2128 1.35735 52.1001 0.378179 53.5174 -0.0917969Z"/>
        <path fill-rule="evenodd" clip-rule="evenodd" d="M53.701 15.5137C63.633 15.4744 71.0073 19.7582 75.824 28.3653C77.668 32.0696 78.4637 35.9862 78.2107 40.1153C77.2243 42.6432 75.419 43.5307 72.7947 42.7774C71.6329 42.3217 70.8681 41.4955 70.4998 40.2989C69.8569 29.6194 64.1961 23.9586 53.5174 23.3164C51.3682 22.4165 50.4809 20.7948 50.8553 18.4512C51.3482 17.0099 52.2969 16.0308 53.701 15.5137Z"/>
    </symbol>

    <symbol id="youtube" viewBox="0 0 24 24">
        <path d="m23.469 5.929.03.196c-.29-1.029-1.073-1.823-2.068-2.112l-.021-.005c-1.871-.508-9.4-.508-9.4-.508s-7.51-.01-9.4.508c-1.014.294-1.798 1.088-2.083 2.096l-.005.021c-.699 3.651-.704 8.038.031 11.947l-.031-.198c.29 1.029 1.073 1.823 2.068 2.112l.021.005c1.869.509 9.4.509 9.4.509s7.509 0 9.4-.509c1.015-.294 1.799-1.088 2.084-2.096l.005-.021c.318-1.698.5-3.652.5-5.648 0-.073 0-.147-.001-.221.001-.068.001-.149.001-.23 0-1.997-.182-3.951-.531-5.846zm-13.861 9.722v-7.293l6.266 3.652z"/>
    </symbol>

    <symbol id="instagram" viewBox="0 0 169.063 169.063">
        <path d="M122.406,0H46.654C20.929,0,0,20.93,0,46.655v75.752c0,25.726,20.929,46.655,46.654,46.655h75.752 c25.727,0,46.656-20.93,46.656-46.655V46.655C169.063,20.93,148.133,0,122.406,0z M154.063,122.407 c0,17.455-14.201,31.655-31.656,31.655H46.654C29.2,154.063,15,139.862,15,122.407V46.655C15,29.201,29.2,15,46.654,15h75.752 c17.455,0,31.656,14.201,31.656,31.655V122.407z"/><path d="M84.531,40.97c-24.021,0-43.563,19.542-43.563,43.563c0,24.02,19.542,43.561,43.563,43.561s43.563-19.541,43.563-43.561 C128.094,60.512,108.552,40.97,84.531,40.97z M84.531,113.093c-15.749,0-28.563-12.812-28.563-28.561 c0-15.75,12.813-28.563,28.563-28.563s28.563,12.813,28.563,28.563C113.094,100.281,100.28,113.093,84.531,113.093z"/><path d="M129.921,28.251c-2.89,0-5.729,1.17-7.77,3.22c-2.051,2.04-3.23,4.88-3.23,7.78c0,2.891,1.18,5.73,3.23,7.78 c2.04,2.04,4.88,3.22,7.77,3.22c2.9,0,5.73-1.18,7.78-3.22c2.05-2.05,3.22-4.89,3.22-7.78c0-2.9-1.17-5.74-3.22-7.78 C135.661,29.421,132.821,28.251,129.921,28.251z"/>
    </symbol>

    <symbol id="telegram" viewBox="0 0 300 300">
        <path d="M5.299,144.645l69.126,25.8l26.756,86.047c1.712,5.511,8.451,7.548,12.924,3.891l38.532-31.412 c4.039-3.291,9.792-3.455,14.013-0.391l69.498,50.457c4.785,3.478,11.564,0.856,12.764-4.926L299.823,29.22 c1.31-6.316-4.896-11.585-10.91-9.259L5.218,129.402C-1.783,132.102-1.722,142.014,5.299,144.645z M96.869,156.711l135.098-83.207 c2.428-1.491,4.926,1.792,2.841,3.726L123.313,180.87c-3.919,3.648-6.447,8.53-7.163,13.829l-3.798,28.146 c-0.503,3.758-5.782,4.131-6.819,0.494l-14.607-51.325C89.253,166.16,91.691,159.907,96.869,156.711z"/>
    </symbol>

    <symbol id="play" viewBox="0 0 494.148 494.148">
        <g><path d="M405.284,201.188L130.804,13.28C118.128,4.596,105.356,0,94.74,0C74.216,0,61.52,16.472,61.52,44.044v406.124 c0,27.54,12.68,43.98,33.156,43.98c10.632,0,23.2-4.6,35.904-13.308l274.608-187.904c17.66-12.104,27.44-28.392,27.44-45.884 C432.632,229.572,422.964,213.288,405.284,201.188z"/></g>
    </symbol>
    
    <symbol id="materials" viewBox="0 0 24 24">
        <path d="M15 13.5C15 13.776 14.776 14 14.5 14H5.5C5.224 14 5 13.776 5 13.5C5 13.224 5.224 13 5.5 13H14.5C14.776 13 15 13.224 15 13.5ZM11.5 17H5.5C5.224 17 5 17.224 5 17.5C5 17.776 5.224 18 5.5 18H11.5C11.776 18 12 17.776 12 17.5C12 17.224 11.776 17 11.5 17ZM20 9.985V19.5C20 21.981 17.981 24 15.5 24H4.5C2.019 24 0 21.981 0 19.5V4.5C0 2.019 2.019 0 4.5 0H10.015C11.75 0 13.383 0.676 14.612 1.904L18.096 5.389C19.324 6.616 20 8.248 20 9.985ZM13.904 2.61C13.353 2.06 12.704 1.651 12 1.379V6.499C12 7.326 12.673 7.999 13.5 7.999H18.621C18.348 7.295 17.939 6.645 17.389 6.095L13.904 2.61ZM19 9.985C19 9.65 18.962 9.322 18.904 9H13.5C12.121 9 11 7.878 11 6.5V1.096C10.677 1.038 10.349 1 10.015 1H4.5C2.57 1 1 2.57 1 4.5V19.5C1 21.43 2.57 23 4.5 23H15.5C17.43 23 19 21.43 19 19.5V9.985Z"/>
    </symbol>

    <symbol id="pen" viewBox="0 0 97 97">
        <path d="M83.6436 -0.0947266C84.4645 -0.0947266 85.2855 -0.0947266 86.1064 -0.0947266C91.869 0.804685 95.4687 4.08853 96.9053 9.75684C96.9053 11.2725 96.9053 12.7881 96.9053 14.3037C96.3902 16.5342 95.4112 18.555 93.9688 20.3662C91.8821 22.4845 89.7665 24.5685 87.6221 26.6182C81.7831 20.8739 75.9734 15.0957 70.1924 9.2832C72.5344 6.87785 74.9342 4.54127 77.3916 2.27344C79.3348 1.04664 81.4188 0.257253 83.6436 -0.0947266Z"/>
        <path d="M5.96777 96.9053C5.84147 96.9053 5.71518 96.9053 5.58887 96.9053C3.68913 94.9425 1.79459 92.9849 -0.0947266 91.0322C-0.0947266 90.9691 -0.0947266 90.9059 -0.0947266 90.8428C2.36157 88.4812 4.79288 86.0816 7.19922 83.6436C7.64261 79.0285 8.65303 74.5449 10.2305 70.1924C10.7865 69.0695 11.418 67.9959 12.125 66.9717C27.7208 51.597 43.2243 36.1249 58.6357 20.5557C57.4013 19.1632 56.0751 17.8686 54.6572 16.6719C53.3636 15.8915 52.0375 15.8284 50.6787 16.4824C43.769 23.2027 36.917 29.9914 30.123 36.8486C28.2285 34.9541 26.334 33.0596 24.4395 31.165C24.3131 31.0387 24.3131 30.9125 24.4395 30.7861C31.2281 23.9975 38.017 17.2087 44.8057 10.4199C48.6593 7.6828 52.8273 7.11444 57.3096 8.71485C58.6054 9.33061 59.8052 10.0884 60.9092 10.9883C67.8873 17.9665 74.8656 24.9447 81.8438 31.9229C81.9701 32.1123 81.9701 32.3018 81.8438 32.4912C64.3773 50.0207 46.8529 67.4821 29.2705 84.875C27.218 86.1853 25.0076 87.1325 22.6396 87.7168C19.5817 88.4799 16.4872 89.0483 13.3564 89.4219C10.8553 91.8914 8.39241 94.3859 5.96777 96.9053Z"/>
    </symbol>

    <symbol id="community" viewBox="0 0 89 89">
        <path d="M44.5 59.3333C41.5662 59.3333 38.6984 58.4634 36.259 56.8335C33.8197 55.2036 31.9185 52.8869 30.7958 50.1765C29.6731 47.466 29.3793 44.4836 29.9517 41.6062C30.524 38.7288 31.9368 36.0857 34.0112 34.0113C36.0857 31.9368 38.7288 30.524 41.6062 29.9517C44.4835 29.3793 47.466 29.6731 50.1765 30.7958C52.8869 31.9185 55.2036 33.8197 56.8335 36.259C58.4634 38.6984 59.3333 41.5663 59.3333 44.5C59.3333 48.4341 57.7705 52.207 54.9888 54.9888C52.207 57.7705 48.434 59.3333 44.5 59.3333ZM44.5 37.0833C43.0331 37.0833 41.5992 37.5183 40.3795 38.3333C39.1599 39.1482 38.2092 40.3066 37.6479 41.6618C37.0865 43.017 36.9397 44.5082 37.2258 45.9469C37.512 47.3856 38.2184 48.7071 39.2556 49.7444C40.2929 50.7816 41.6144 51.488 43.0531 51.7742C44.4918 52.0603 45.983 51.9135 47.3382 51.3521C48.6935 50.7908 49.8518 49.8401 50.6667 48.6205C51.4817 47.4008 51.9167 45.9669 51.9167 44.5C51.9167 42.533 51.1353 40.6465 49.7444 39.2556C48.3535 37.8647 46.467 37.0833 44.5 37.0833ZM66.75 85.2917C66.75 79.3906 64.4058 73.7312 60.2331 69.5585C56.0604 65.3859 50.4011 63.0417 44.5 63.0417C38.5989 63.0417 32.9396 65.3859 28.7669 69.5585C24.5942 73.7312 22.25 79.3906 22.25 85.2917C22.25 86.2752 22.6407 87.2184 23.3361 87.9139C24.0316 88.6093 24.9748 89 25.9583 89C26.9418 89 27.8851 88.6093 28.5805 87.9139C29.276 87.2184 29.6667 86.2752 29.6667 85.2917C29.6667 81.3576 31.2295 77.5847 34.0112 74.8029C36.793 72.0211 40.566 70.4583 44.5 70.4583C48.434 70.4583 52.207 72.0211 54.9888 74.8029C57.7705 77.5847 59.3333 81.3576 59.3333 85.2917C59.3333 86.2752 59.724 87.2184 60.4195 87.9139C61.1149 88.6093 62.0582 89 63.0417 89C64.0252 89 64.9684 88.6093 65.6639 87.9139C66.3593 87.2184 66.75 86.2752 66.75 85.2917ZM66.75 29.6667C63.8162 29.6667 60.9484 28.7967 58.509 27.1668C56.0697 25.5369 54.1685 23.2202 53.0458 20.5098C51.9231 17.7994 51.6293 14.8169 52.2017 11.9395C52.774 9.06212 54.1868 6.41907 56.2612 4.34459C58.3357 2.27011 60.9788 0.857372 63.8562 0.285025C66.7335 -0.287322 69.716 0.006427 72.4265 1.12913C75.1369 2.25183 77.4536 4.15305 79.0835 6.59238C80.7134 9.03171 81.5833 11.8996 81.5833 14.8333C81.5833 18.7674 80.0205 22.5403 77.2387 25.3221C74.457 28.1039 70.684 29.6667 66.75 29.6667ZM66.75 7.41667C65.2831 7.41667 63.8492 7.85165 62.6295 8.66661C61.4099 9.48156 60.4592 10.6399 59.8979 11.9951C59.3365 13.3503 59.1897 14.8416 59.4758 16.2803C59.762 17.719 60.4684 19.0405 61.5056 20.0777C62.5429 21.115 63.8644 21.8213 65.3031 22.1075C66.7418 22.3937 68.233 22.2468 69.5882 21.6854C70.9435 21.1241 72.1018 20.1735 72.9167 18.9538C73.7317 17.7342 74.1667 16.3002 74.1667 14.8333C74.1667 12.8663 73.3853 10.9799 71.9944 9.58896C70.6035 8.19807 68.717 7.41667 66.75 7.41667ZM89 55.625C88.9941 49.7257 86.648 44.0698 82.4766 39.8984C78.3052 35.727 72.6493 33.3809 66.75 33.375C65.7665 33.375 64.8233 33.7657 64.1278 34.4612C63.4324 35.1566 63.0417 36.0998 63.0417 37.0833C63.0417 38.0669 63.4324 39.0101 64.1278 39.7055C64.8233 40.401 65.7665 40.7917 66.75 40.7917C70.684 40.7917 74.457 42.3545 77.2387 45.1363C80.0205 47.918 81.5833 51.691 81.5833 55.625C81.5833 56.6085 81.974 57.5517 82.6695 58.2472C83.3649 58.9426 84.3082 59.3333 85.2917 59.3333C86.2752 59.3333 87.2184 58.9426 87.9139 58.2472C88.6093 57.5517 89 56.6085 89 55.625ZM22.25 29.6667C19.3162 29.6667 16.4484 28.7967 14.009 27.1668C11.5697 25.5369 9.66849 23.2202 8.54579 20.5098C7.42309 17.7994 7.12934 14.8169 7.70169 11.9395C8.27403 9.06212 9.68677 6.41907 11.7612 4.34459C13.8357 2.27011 16.4788 0.857372 19.3562 0.285025C22.2335 -0.287322 25.216 0.006427 27.9265 1.12913C30.6369 2.25183 32.9536 4.15305 34.5835 6.59238C36.2134 9.03171 37.0833 11.8996 37.0833 14.8333C37.0833 18.7674 35.5205 22.5403 32.7388 25.3221C29.957 28.1039 26.184 29.6667 22.25 29.6667ZM22.25 7.41667C20.7831 7.41667 19.3492 7.85165 18.1295 8.66661C16.9099 9.48156 15.9592 10.6399 15.3979 11.9951C14.8365 13.3503 14.6897 14.8416 14.9758 16.2803C15.262 17.719 15.9684 19.0405 17.0056 20.0777C18.0429 21.115 19.3644 21.8213 20.8031 22.1075C22.2418 22.3937 23.733 22.2468 25.0882 21.6854C26.4435 21.1241 27.6018 20.1735 28.4167 18.9538C29.2317 17.7342 29.6667 16.3002 29.6667 14.8333C29.6667 12.8663 28.8853 10.9799 27.4944 9.58896C26.1035 8.19807 24.217 7.41667 22.25 7.41667ZM7.41667 55.625C7.41667 51.691 8.97946 47.918 11.7612 45.1363C14.543 42.3545 18.316 40.7917 22.25 40.7917C23.2335 40.7917 24.1767 40.401 24.8722 39.7055C25.5676 39.0101 25.9583 38.0669 25.9583 37.0833C25.9583 36.0998 25.5676 35.1566 24.8722 34.4612C24.1767 33.7657 23.2335 33.375 22.25 33.375C16.3507 33.3809 10.6948 35.727 6.52338 39.8984C2.35197 44.0698 0.00589043 49.7257 0 55.625C0 56.6085 0.390698 57.5517 1.08615 58.2472C1.78159 58.9426 2.72482 59.3333 3.70833 59.3333C4.69184 59.3333 5.63507 58.9426 6.33052 58.2472C7.02597 57.5517 7.41667 56.6085 7.41667 55.625Z"/>
    </symbol>

    <symbol id="DClosedBlack" viewBox="0 0 87 88">
        <path opacity="0.996" fill-rule="evenodd" clip-rule="evenodd" d="M41.227 0.369873C42.0477 0.369873 42.8683 0.369873 43.6889 0.369873C43.6889 7.11728 43.6889 13.8647 43.6889 20.6121C36.1127 20.7644 29.9807 23.7884 25.2931 29.6846C21.1503 35.347 19.752 41.6385 21.0988 48.5591C22.539 54.7677 25.9054 59.6231 31.1971 63.1253C36.6757 66.5054 42.5724 67.5235 48.8863 66.1799C55.4317 64.5259 60.4088 60.7952 63.8172 54.9874C65.7598 51.4601 66.74 47.676 66.7578 43.6354C73.5052 43.6354 80.2526 43.6354 87 43.6354C86.9207 54.8278 83.1745 64.5687 75.7619 72.8589C68.5905 80.5956 59.7532 85.208 49.251 86.6957C39.2356 87.8993 29.9046 85.9389 21.2584 80.8145C12.1949 75.1918 5.92614 67.3274 2.45223 57.2213C0.102583 49.9177 -0.322914 42.5015 1.17569 34.9731C3.30496 25.1101 8.19072 16.9265 15.8331 10.4226C23.1864 4.3477 31.6512 0.996789 41.227 0.369873Z" fill="#1E1F1E"/>
        <path fill-rule="evenodd" clip-rule="evenodd" d="M63.2471 0.369873C71.1648 0.369873 79.0821 0.369873 86.9998 0.369873C86.9998 8.28746 86.9998 16.205 86.9998 24.1226C79.0821 24.1226 71.1648 24.1226 63.2471 24.1226C63.2471 16.205 63.2471 8.28746 63.2471 0.369873Z" fill="#C52C23"/>
    </symbol>

    <symbol id="DClosedWhite" viewBox="0 0 78 78">
        <path opacity="0.996" fill-rule="evenodd" clip-rule="evenodd" d="M77.02 41.14C77.02 40.42 77.02 39.7 77.02 38.98C71.1 38.98 65.18 38.98 59.26 38.98C59.1264 45.6272 56.4732 51.0072 51.3 55.12C46.332 58.7548 40.812 59.9816 34.74 58.8C29.2928 57.5364 25.0328 54.5828 21.96 49.94C18.9944 45.1332 18.1012 39.9596 19.28 34.42C20.7312 28.6772 24.0044 24.3104 29.1 21.32C32.1948 19.6156 35.5148 18.7556 39.06 18.74C39.06 12.82 39.06 6.90004 39.06 0.980041C29.24 1.04964 20.6936 4.33644 13.42 10.84C6.63202 17.132 2.58522 24.8856 1.28002 34.1C0.224021 42.8872 1.94402 51.074 6.44002 58.66C11.3732 66.6121 18.2732 72.1121 27.14 75.16C33.548 77.2216 40.0548 77.5949 46.66 76.28C55.3136 74.4119 62.4937 70.1252 68.2 63.42C73.53 56.9684 76.47 49.5416 77.02 41.14Z" fill="#FEFFFE"/>
        <path fill-rule="evenodd" clip-rule="evenodd" d="M77.02 21.8199C77.02 14.8731 77.02 7.92675 77.02 0.979949C70.0733 0.979949 63.1267 0.979949 56.18 0.979949C56.18 7.92675 56.18 14.8731 56.18 21.8199C63.1267 21.8199 70.0733 21.8199 77.02 21.8199Z" fill="#C52C23"/>
    </symbol>

    <symbol id="DeptSpace" viewBox="0 0 65 79">
        <path opacity="0.994" fill-rule="evenodd" clip-rule="evenodd" d="M7.09552 52.7053C7.33957 52.6331 7.55778 52.5373 7.7502 52.4179C7.76083 52.4284 7.7715 52.4393 7.78213 52.4498C7.87794 52.3965 7.97374 52.3435 8.06955 52.2902C8.08277 52.3048 8.09874 52.3154 8.11745 52.3221C8.20812 52.2608 8.30393 52.2074 8.40487 52.1624C8.42359 52.1691 8.43956 52.1797 8.45278 52.1943C8.5459 52.1452 8.63637 52.0918 8.72423 52.0347C8.74294 52.0414 8.75891 52.0519 8.77213 52.0666C8.90511 52.0002 9.03285 51.9258 9.15536 51.8431C9.16858 51.8577 9.18455 51.8683 9.20326 51.875C9.5275 51.7198 9.85216 51.592 10.1773 51.4918C10.1876 51.4257 10.2143 51.4151 10.2571 51.4598C10.3698 51.3691 10.4763 51.3263 10.5765 51.3321C10.6774 51.2871 10.7732 51.2337 10.8639 51.1724C10.8826 51.1791 10.8986 51.1897 10.9118 51.2043C11.0049 51.1552 11.0954 51.1018 11.1833 51.0447C11.2415 51.0788 11.2788 51.0574 11.295 50.9808C11.3083 50.9955 11.3242 51.006 11.3429 51.0127C11.4427 50.9709 11.5332 50.9179 11.6144 50.8531C11.6276 50.8677 11.6436 50.8783 11.6623 50.885C12.0311 50.7039 12.393 50.5602 12.7481 50.4539C12.8253 50.4018 12.9051 50.3539 12.9876 50.3102C13.0008 50.3248 13.0168 50.3354 13.0355 50.3421C13.2441 50.2396 13.457 50.1489 13.6742 50.0706C13.5312 49.8717 13.4567 49.6481 13.4507 49.4C13.5029 48.9289 13.6413 48.4873 13.8658 48.0747C14.1069 47.6898 14.3784 47.328 14.6802 46.9889C21.7999 39.8663 28.9161 32.7396 36.0291 25.6081C36.2287 25.4113 36.4414 25.2306 36.6678 25.0652C36.6572 25.0546 36.6464 25.0438 36.6358 25.0332C37.0453 24.7062 37.4604 24.3868 37.8813 24.0752C37.9196 24.0464 37.9462 24.009 37.9612 23.9634C37.9743 23.9781 37.9902 23.9886 38.0091 23.9953C38.11 23.9209 38.2004 23.8356 38.2805 23.7398C38.3035 23.7702 38.33 23.7756 38.3604 23.7558C38.4836 23.6536 38.6059 23.5527 38.7276 23.4524C39.0502 23.2879 39.3749 23.1069 39.7016 22.9095C40.0322 22.7521 40.357 22.5818 40.6757 22.3985C40.7182 22.3985 40.7609 22.3985 40.8034 22.3985C40.9126 22.3062 41.0298 22.2529 41.1547 22.2389C41.3716 22.1118 41.6005 22.0054 41.8413 21.9195C41.8602 21.9262 41.8761 21.9368 41.8892 21.9514C41.9796 21.9062 42.0649 21.853 42.1447 21.7918C42.1578 21.8064 42.1738 21.817 42.1926 21.8237C42.2565 21.7918 42.3204 21.7598 42.3842 21.7279C42.4031 21.7346 42.419 21.7452 42.4321 21.7598C42.496 21.7173 42.5599 21.6747 42.6237 21.6321C42.6368 21.6467 42.6528 21.6573 42.6716 21.664C42.8032 21.6284 42.9255 21.5752 43.0389 21.5043C43.1133 21.5043 43.188 21.5043 43.2625 21.5043C43.479 21.4251 43.692 21.3506 43.9012 21.2808C43.958 21.3121 44.0113 21.3014 44.0608 21.2489C44.1314 21.2528 44.2007 21.2528 44.2684 21.2489C44.3067 21.1966 44.3495 21.1859 44.3962 21.2169C44.4361 21.1997 44.4731 21.1784 44.5079 21.1531C44.6057 21.1565 44.7015 21.1565 44.7954 21.1531C44.8825 21.1147 44.9675 21.0828 45.0508 21.0572C45.1042 21.0679 45.1572 21.0785 45.2105 21.0892C45.2849 21.0572 45.3597 21.0253 45.4341 20.9934C45.5621 21.0103 45.695 21.0103 45.8333 20.9934C45.8646 20.9781 45.8911 20.9569 45.9131 20.9295C46.0303 20.9401 46.1472 20.9508 46.2644 20.9614C46.2963 20.9401 46.3283 20.9189 46.3602 20.8976C46.4346 20.9082 46.5093 20.9189 46.5837 20.9295C46.6476 20.9082 46.7115 20.8869 46.7754 20.8656C47.0069 20.8686 47.241 20.8792 47.4779 20.8976C47.4993 20.8763 47.5204 20.855 47.5418 20.8337C47.6057 20.8337 47.6695 20.8337 47.7334 20.8337C47.834 20.8686 47.9298 20.8899 48.0208 20.8976C48.0422 20.8763 48.0633 20.855 48.0847 20.8337C48.1486 20.8337 48.2125 20.8337 48.2763 20.8337C48.3083 20.855 48.3402 20.8763 48.3721 20.8976C48.5241 20.8723 48.6838 20.8617 48.8512 20.8656C48.8831 20.8869 48.915 20.9082 48.947 20.9295C49.0214 20.9189 49.0961 20.9082 49.1705 20.8976C49.2025 20.9189 49.2344 20.9401 49.2663 20.9614C49.3621 20.9508 49.4579 20.9401 49.5537 20.9295C49.6256 20.9824 49.7 20.993 49.7773 20.9614C49.8092 20.9827 49.8412 21.004 49.8731 21.0253C49.9405 21.0229 50.0044 21.0122 50.0647 20.9934C50.1366 21.0462 50.211 21.0569 50.2883 21.0253C50.3202 21.0466 50.3521 21.0679 50.3841 21.0892C50.4987 21.101 50.6054 21.101 50.7034 21.0892C50.8206 21.1318 50.9375 21.1744 51.0547 21.2169C51.0953 21.2132 51.1377 21.2026 51.1825 21.185C51.2569 21.2169 51.3316 21.2489 51.406 21.2808C51.4686 21.2376 51.5325 21.2482 51.5976 21.3127C51.6404 21.2899 51.6832 21.3006 51.7254 21.3447C51.7787 21.3447 51.8317 21.3447 51.885 21.3447C51.9317 21.406 51.985 21.4273 52.0447 21.4085C52.1463 21.4518 52.2421 21.4838 52.3321 21.5043C52.3918 21.4855 52.4452 21.5068 52.4918 21.5682C52.5023 21.5576 52.5132 21.5469 52.5237 21.5363C52.6675 21.6055 52.8163 21.6587 52.9708 21.696C52.9814 21.6853 52.9922 21.6747 53.0028 21.664C53.0395 21.7037 53.0823 21.7357 53.1305 21.7598C53.1838 21.7598 53.2369 21.7598 53.2902 21.7598C53.4923 21.8556 53.6948 21.9514 53.897 22.0472C53.9075 22.0367 53.9184 22.0259 53.9289 22.0153C54.0566 22.0792 54.1844 22.1431 54.3121 22.2069C54.3227 22.1964 54.3335 22.1855 54.3441 22.175C54.3974 22.2175 54.4504 22.2603 54.5037 22.3027C54.5143 22.2922 54.5251 22.2813 54.5357 22.2708C54.5823 22.3321 54.6356 22.3535 54.6954 22.3347C54.7487 22.3771 54.8017 22.4199 54.855 22.4624C54.8975 22.4624 54.9403 22.4624 54.9828 22.4624C55.4206 22.6965 55.8782 22.9625 56.356 23.2608C56.3665 23.2503 56.3774 23.2394 56.3879 23.2289C56.5684 23.3215 56.7389 23.4492 56.8989 23.6121C56.9094 23.6015 56.9203 23.5907 56.9308 23.5802C57.0171 23.6804 57.1129 23.7443 57.2183 23.7718C57.4734 23.9401 57.7184 24.1422 57.9528 24.3785C57.9633 24.368 57.9742 24.3571 57.9847 24.3466C58.0591 24.421 58.1338 24.4957 58.2083 24.5702C58.2188 24.5596 58.2297 24.5488 58.2402 24.5382C58.5161 24.7822 58.7821 25.0377 59.0386 25.3047C59.0491 25.2941 59.06 25.2833 59.0705 25.2727C63.1375 29.3071 64.7981 34.2038 64.0525 39.9631C63.4696 43.2681 62.0696 46.1423 59.8529 48.5856C50.0063 58.4112 40.1701 68.2474 30.3446 78.094C28.6127 76.4136 27.3832 74.3911 26.656 72.0263C25.3728 67.38 26.0914 63.1006 28.8116 59.1882C29.2373 58.6772 29.6634 58.1663 30.0891 57.6553C37.8277 49.9378 45.5455 42.2203 53.2423 34.5021C53.6776 34.1671 54.1457 33.8797 54.6475 33.6398C54.7203 33.6555 54.7892 33.6341 54.855 33.576C54.8681 33.5906 54.8841 33.6012 54.9029 33.6079C54.9882 33.576 55.0732 33.544 55.1584 33.5121C55.3088 33.536 55.4525 33.536 55.5895 33.5121C55.6215 33.5335 55.6534 33.5546 55.6854 33.576C55.8291 33.5622 55.9568 33.6261 56.0686 33.7676C57.1004 31.122 58.1597 28.4765 59.2462 25.8316C59.2407 25.8156 59.2356 25.7997 59.2302 25.7837C59.0488 25.8437 58.8891 25.9185 58.7512 26.0072C58.7381 25.9926 58.7221 25.982 58.7033 25.9753C58.6049 26.0165 58.5145 26.0698 58.4318 26.135C58.3108 26.1334 58.199 26.1759 58.0965 26.2627C58.0776 26.256 58.0617 26.2455 58.0486 26.2308C57.7228 26.3799 57.3875 26.5288 57.0426 26.6779C57.0238 26.6712 57.0078 26.6606 56.9947 26.646C56.889 26.7089 56.7823 26.7727 56.6754 26.8376C56.5582 26.8315 56.4518 26.874 56.356 26.9653C56.2516 26.9513 56.1449 26.9937 56.0366 27.0931C55.9044 27.0978 55.7662 27.1512 55.6215 27.2527C55.6109 27.2422 55.6001 27.2313 55.5895 27.2208C55.2638 27.3699 54.9285 27.5188 54.5836 27.6679C54.5647 27.6612 54.5488 27.6506 54.5357 27.636C54.4293 27.6998 54.3227 27.7637 54.2163 27.8276C54.0982 27.8221 53.9918 27.8646 53.897 27.9553C53.8839 27.9406 53.8679 27.9301 53.8491 27.9234C53.7453 27.9726 53.6444 28.0259 53.5457 28.0831C53.5351 28.0725 53.5243 28.0617 53.5137 28.0511C53.3758 28.1437 53.248 28.1967 53.1305 28.2108C53.0318 28.268 52.9309 28.3213 52.8271 28.3705C52.8083 28.3638 52.7923 28.3532 52.7792 28.3385C52.5579 28.4066 52.3449 28.5132 52.1405 28.6579C52.0233 28.6518 51.917 28.6943 51.8212 28.7856C51.695 28.7831 51.5673 28.8361 51.4379 28.9453C51.3843 28.9102 51.3364 28.9207 51.2942 28.9772C51.4549 29.1829 51.5187 29.4173 51.4858 29.6798C51.4804 29.797 51.4753 29.9139 51.4699 30.0311C51.2112 30.9161 50.7373 31.656 50.0487 32.2506C47.7599 34.5819 45.4286 36.9132 43.0549 39.2445C41.0429 41.2989 38.9991 43.3428 36.9233 45.3761C34.9113 47.4305 32.8675 49.4744 30.7916 51.5077C30.4404 51.9015 30.0466 52.2956 29.61 52.6893C27.8545 54.586 25.7682 56.0177 23.3507 56.9847C23.2731 57.0073 23.1987 57.0393 23.1271 57.0805C23.1083 57.0738 23.0923 57.0632 23.0792 57.0485C22.9853 57.1153 22.9001 57.1686 22.8237 57.2082C22.7439 57.1884 22.6695 57.2098 22.6002 57.2721C22.5897 57.2615 22.5788 57.2507 22.5683 57.2402C22.499 57.3024 22.4246 57.3238 22.3447 57.304C22.2754 57.3663 22.201 57.3877 22.1212 57.3679C22.0675 57.4382 22.0036 57.4595 21.9296 57.4318C21.8638 57.4899 21.7948 57.5113 21.722 57.4956C21.6862 57.5317 21.6434 57.5531 21.5942 57.5595C21.5837 57.517 21.5728 57.517 21.5623 57.5595C21.3969 57.5851 21.2318 57.6381 21.0673 57.7192C20.9967 57.7154 20.9274 57.7154 20.8597 57.7192C20.7202 57.7719 20.5873 57.8144 20.4605 57.8469C20.4072 57.8364 20.3542 57.8255 20.3008 57.815C20.2664 57.8753 20.2239 57.8862 20.1731 57.8469C20.0897 57.8725 20.0048 57.9044 19.9176 57.9427C19.8643 57.9322 19.8113 57.9213 19.7579 57.9108C19.7365 57.9322 19.7155 57.9533 19.6941 57.9747C19.6407 57.9641 19.5877 57.9533 19.5344 57.9427C19.5025 57.9641 19.4705 57.9852 19.4386 58.0066C19.3051 58.0254 19.1774 58.0254 19.0554 58.0066C19.0234 58.028 18.9915 58.0491 18.9596 58.0705C18.8778 58.0516 18.7925 58.0411 18.7041 58.0385C18.6827 58.0599 18.6616 58.081 18.6402 58.1024C18.2924 58.1308 17.9517 58.1308 17.6183 58.1024C17.5863 58.1238 17.5544 58.1449 17.5225 58.1663C17.3094 58.1238 17.0968 58.1238 16.8837 58.1663C16.8518 58.1449 16.8199 58.1238 16.7879 58.1024C16.5931 58.105 16.4015 58.1158 16.2131 58.1343C16.1812 58.1129 16.1492 58.0919 16.1173 58.0705C15.995 58.0647 15.8672 58.0756 15.7341 58.1024C15.7021 58.081 15.6702 58.0599 15.6383 58.0385C15.4696 58.0306 15.2991 58.0306 15.1273 58.0385C15.0554 57.9858 14.981 57.975 14.9037 58.0066C14.8615 57.9625 14.8189 57.952 14.776 57.9747C14.6465 57.9293 14.5187 57.8974 14.3928 57.8789C14.3499 57.9015 14.3073 57.891 14.265 57.8469C14.1878 57.8785 14.1132 57.8677 14.0415 57.815C14.0309 57.8255 14.0202 57.8364 14.0096 57.8469C13.9194 57.8265 13.8236 57.7946 13.7221 57.7511C13.6792 57.7738 13.6367 57.7633 13.5944 57.7192C13.5838 57.7297 13.5731 57.7406 13.5625 57.7511C13.4028 57.6978 13.2431 57.6448 13.0834 57.5914C13.0209 57.6346 12.9571 57.624 12.8918 57.5595C12.8386 57.5595 12.7854 57.5595 12.7321 57.5595C12.5299 57.4851 12.3276 57.4104 12.1254 57.336C12.0655 57.3548 12.0123 57.3334 11.9657 57.2721C11.9124 57.2721 11.8592 57.2721 11.806 57.2721C11.7102 57.2188 11.6144 57.1657 11.5186 57.1124C11.5079 57.1229 11.4973 57.1338 11.4866 57.1443C11.4142 57.0878 11.3397 57.0664 11.2631 57.0805C11.1673 57.0271 11.0715 56.9741 10.9757 56.9208C10.965 56.9313 10.9544 56.9422 10.9437 56.9527C10.8971 56.8914 10.8439 56.87 10.7841 56.8889C10.7308 56.8464 10.6776 56.8036 10.6244 56.7611C10.6138 56.7717 10.6031 56.7825 10.5925 56.7931C10.4606 56.7295 10.3222 56.6551 10.1773 56.5695C10.1667 56.58 10.156 56.5909 10.1454 56.6014C10.0921 56.559 10.0389 56.5162 9.98568 56.4737C9.97505 56.4842 9.96438 56.4951 9.95374 56.5056C9.90051 56.4632 9.8473 56.4204 9.79407 56.3779C9.78343 56.3884 9.77277 56.3993 9.76213 56.4098C9.70889 56.3674 9.65569 56.3246 9.60245 56.2821C9.59182 56.2926 9.58115 56.3035 9.57052 56.314C9.44278 56.2288 9.31503 56.1438 9.18729 56.0585C9.13728 56.0764 9.09471 56.055 9.05955 55.9947C8.9762 55.9899 8.90169 55.9471 8.836 55.8669C8.82537 55.8775 8.8147 55.8883 8.80407 55.8989C8.64439 55.7817 8.48471 55.6648 8.32503 55.5476C8.3144 55.5581 8.30373 55.569 8.2931 55.5795C7.92907 55.309 7.55648 55.0325 7.17536 54.7492C7.16472 54.7597 7.15406 54.7706 7.14342 54.7811C6.99709 54.6313 6.84272 54.4927 6.68036 54.366C6.66972 54.3235 6.65906 54.3235 6.64842 54.366C2.27626 50.5046 0.333499 45.6504 0.820196 39.8034C1.32794 35.8942 2.93538 32.5834 5.64245 29.8714C15.3189 20.2056 24.9954 10.5398 34.6718 0.874023C37.8222 4.14763 39.2274 8.0757 38.8873 12.6582C38.5012 16.0306 37.181 18.9048 34.9273 21.2808C28.7637 27.4338 22.6002 33.5865 16.4366 39.7395C16.2671 39.9148 16.1128 40.1064 15.9736 40.3143C14.618 41.6579 13.2661 43.0046 11.9178 44.3542C11.6742 44.5509 11.4294 44.7476 11.1833 44.945C10.9305 45.0794 10.6804 45.2177 10.4328 45.3602C10.4196 45.3455 10.4036 45.3349 10.3849 45.3282C10.261 45.3863 10.1386 45.4397 10.0176 45.4879C9.9608 45.4566 9.9076 45.4671 9.85794 45.5198C9.81329 45.5023 9.77069 45.4917 9.7302 45.4879C9.6722 45.5498 9.60833 45.5712 9.53858 45.5518C9.50665 45.5304 9.47471 45.5093 9.44278 45.4879C9.3576 45.5304 9.27246 45.5304 9.18729 45.4879C9.08714 45.4298 8.99134 45.3659 8.89987 45.2963C7.82946 47.9479 6.75962 50.5985 5.69036 53.2482C5.70099 53.2588 5.71166 53.2696 5.72229 53.2802C5.89832 53.2096 6.0793 53.1243 6.2652 53.0247C6.30805 53.0694 6.33469 53.0588 6.34503 52.9927C6.35567 53.0033 6.36634 53.0141 6.37697 53.0247C6.47009 52.9755 6.56057 52.9222 6.64842 52.865C6.78079 52.8551 6.9032 52.8021 7.01568 52.7053C7.04688 52.7459 7.07351 52.7459 7.09552 52.7053Z"/>
    </symbol>

    <symbol id="calendar" viewBox="0 0 93 96">
        <path opacity="0.985" fill-rule="evenodd" clip-rule="evenodd" d="M17.5 -0.5C20.8333 -0.5 24.1667 -0.5 27.5 -0.5C28.388 2.05449 28.7214 4.72116 28.5 7.5C40.5 7.5 52.5 7.5 64.5 7.5C64.2786 4.72116 64.612 2.05449 65.5 -0.5C68.8333 -0.5 72.1667 -0.5 75.5 -0.5C76.388 2.05449 76.7214 4.72116 76.5 7.5C81.7616 7.19532 86.9283 7.52865 92 8.5C92.6667 37.1667 92.6667 65.8333 92 94.5C76.906 95.1629 61.7393 95.4962 46.5 95.5C31.2607 95.4962 16.094 95.1629 1 94.5C0.333332 65.8333 0.333332 37.1667 1 8.5C6.07172 7.52865 11.2384 7.19532 16.5 7.5C16.2786 4.72116 16.612 2.05449 17.5 -0.5ZM20.5 3.5C21.8333 3.5 23.1667 3.5 24.5 3.5C24.5 7.5 24.5 11.5 24.5 15.5C23.1667 15.5 21.8333 15.5 20.5 15.5C20.5 11.5 20.5 7.5 20.5 3.5ZM68.5 3.5C69.8333 3.5 71.1667 3.5 72.5 3.5C72.5 7.5 72.5 11.5 72.5 15.5C71.1667 15.5 69.8333 15.5 68.5 15.5C68.5 11.5 68.5 7.5 68.5 3.5ZM4.5 11.5C8.5 11.5 12.5 11.5 16.5 11.5C16.3367 13.8568 16.5034 16.1902 17 18.5C20.6667 19.8333 24.3333 19.8333 28 18.5C28.4966 16.1902 28.6633 13.8568 28.5 11.5C40.5 11.5 52.5 11.5 64.5 11.5C64.3367 13.8568 64.5034 16.1902 65 18.5C68.6667 19.8333 72.3333 19.8333 76 18.5C76.4966 16.1902 76.6633 13.8568 76.5 11.5C80.5 11.5 84.5 11.5 88.5 11.5C88.5 16.1667 88.5 20.8333 88.5 25.5C60.5 25.5 32.5 25.5 4.5 25.5C4.5 20.8333 4.5 16.1667 4.5 11.5ZM4.5 29.5C32.5 29.5 60.5 29.5 88.5 29.5C88.5 50.1667 88.5 70.8333 88.5 91.5C60.5 91.5 32.5 91.5 4.5 91.5C4.5 70.8333 4.5 50.1667 4.5 29.5Z"/>
        <path opacity="0.75" fill-rule="evenodd" clip-rule="evenodd" d="M42.5 45.5C48.7164 44.2685 52.7164 46.6018 54.5 52.5C53.9661 54.6145 52.9661 56.4478 51.5 58C56.7239 62.1942 56.7239 66.5275 51.5 71C42.7625 74.4751 38.0958 71.6417 37.5 62.5C40.8595 61.7904 42.6929 63.1238 43 66.5C45.9973 68.7929 48.4973 68.1263 50.5 64.5C49.4783 61.013 47.145 59.6797 43.5 60.5C43.5 59.1667 43.5 57.8333 43.5 56.5C49.4003 55.7321 50.4003 53.3988 46.5 49.5C43.6493 50.0121 42.3159 51.6787 42.5 54.5C40.8333 54.5 39.1667 54.5 37.5 54.5C37.4976 50.4542 39.1643 47.4542 42.5 45.5Z"/>
    </symbol>

    <symbol id="chevron-right" viewBox="0 0 73 73">
        <path opacity="0.941" fill-rule="evenodd" clip-rule="evenodd" d="M20.3174 0.213867C31.4741 11.1567 42.5715 22.1827 53.6094 33.292C54.7423 34.8679 54.9798 36.5788 54.3223 38.4248C54.141 38.843 53.9034 39.2231 53.6094 39.5654C42.5814 50.6172 31.5316 61.6432 20.46 72.6436C19.6779 71.9328 18.9174 71.1961 18.1787 70.4336C29.181 59.4313 40.1832 48.4291 51.1855 37.4268C51.6608 36.7613 51.6608 36.0961 51.1855 35.4307C40.1832 24.4283 29.181 13.4261 18.1787 2.42383C18.9205 1.70589 19.6334 0.969243 20.3174 0.213867Z"/>
    </symbol>

    <symbol id="arrow-right" viewBox="0 0 66 52">
        <path d="M38.5114 1.51125C39.6097 0.412916 41.3902 0.412916 42.4886 1.51125L64.9886 24.0114C66.087 25.1097 66.087 26.8902 64.9886 27.9886L42.4886 50.4886C41.3902 51.587 39.6097 51.587 38.5114 50.4886C37.413 49.3902 37.413 47.6097 38.5114 46.5114L56.2099 28.8125H3C1.44671 28.8125 0.1875 27.5532 0.1875 26C0.1875 24.4467 1.44671 23.1875 3 23.1875H56.2099L38.5114 5.48873C37.413 4.39039 37.413 2.60959 38.5114 1.51125Z"/>
    </symbol>

    <symbol id="arrow-left" viewBox="0 0 66 52">
        <path d="M27.4881 50.4887C26.3898 51.5871 24.6093 51.5871 23.5109 50.4887L1.01089 27.9886C-0.0874846 26.8903 -0.0874846 25.1098 1.01089 24.0114L23.5109 1.51138C24.6093 0.413007 26.3898 0.413007 27.4881 1.51138C28.5865 2.60976 28.5865 4.39026 27.4881 5.48863L9.78964 23.1875L62.9995 23.1875C64.5528 23.1875 65.812 24.4468 65.812 26C65.812 27.5533 64.5528 28.8125 62.9995 28.8125L9.78964 28.8125L27.4881 46.5113C28.5865 47.6096 28.5865 49.3904 27.4881 50.4887Z"/>
    </symbol>

    <symbol id="close" viewBox="0 0 90 90">
    <path d="M2.54883 -0.0878906C3.31054 -0.0878906 4.07227 -0.0878906 4.83398 -0.0878906C5.40295 0.1393 5.9303 0.461566 6.41602 0.878906C19.2212 13.7133 32.0532 26.5161 44.9121 39.2871C57.771 26.5161 70.6031 13.7133 83.4082 0.878906C83.8939 0.461566 84.4212 0.1393 84.9902 -0.0878906C85.7519 -0.0878906 86.5137 -0.0878906 87.2754 -0.0878906C88.5644 0.38086 89.4433 1.25977 89.9121 2.54883C89.9121 3.31054 89.9121 4.07227 89.9121 4.83398C89.685 5.40295 89.3626 5.9303 88.9453 6.41602C76.1108 19.2212 63.3081 32.0532 50.5371 44.9121C63.3081 57.771 76.1108 70.6031 88.9453 83.4082C89.3626 83.8939 89.685 84.4212 89.9121 84.9902C89.9121 85.7519 89.9121 86.5137 89.9121 87.2754C89.4433 88.5644 88.5644 89.4433 87.2754 89.9121C86.5137 89.9121 85.7519 89.9121 84.9902 89.9121C84.4212 89.685 83.8939 89.3626 83.4082 88.9453C70.6031 76.1108 57.771 63.3081 44.9121 50.5371C32.0532 63.3081 19.2212 76.1108 6.41602 88.9453C5.9303 89.3626 5.40295 89.685 4.83398 89.9121C4.07227 89.9121 3.31054 89.9121 2.54883 89.9121C1.25977 89.4433 0.38086 88.5644 -0.0878906 87.2754C-0.0878906 86.5137 -0.0878906 85.7519 -0.0878906 84.9902C0.1393 84.4212 0.461566 83.8939 0.878906 83.4082C13.7133 70.6031 26.5161 57.771 39.2871 44.9121C26.5161 32.0532 13.7133 19.2212 0.878906 6.41602C0.461566 5.9303 0.1393 5.40295 -0.0878906 4.83398C-0.0878906 4.07227 -0.0878906 3.31054 -0.0878906 2.54883C0.38086 1.25977 1.25977 0.38086 2.54883 -0.0878906Z"/>
    </symbol>

    <symbol id="arr" viewBox="0 0 89 89">
    </symbol>

    <symbol id="arr" viewBox="0 0 89 89">
    </symbol>
</svg>



<svg width="290" height="394" viewBox="0 0 290 394" fill="none" xmlns="http://www.w3.org/2000/svg">
<path d="M219.37 1.74341C273.864 6.74612 289.654 27.221 288.188 49.6859C287.823 55.2895 272.02 80.0474 244.647 99.3717C205.929 126.704 166.618 138.336 123.85 160.607C94.1863 176.054 58.2778 210.696 54.5317 214.652" stroke="#F4F4F4" stroke-width="7"/>
<path d="M219.37 1.74341C273.864 6.74612 289.654 27.221 288.188 49.6859C287.823 55.2895 272.02 80.0474 244.647 99.3717C205.929 126.704 166.618 138.336 123.85 160.607C94.1863 176.054 58.2778 210.696 54.5317 214.652" stroke="url(#paint0_linear_8060_3092)" stroke-width="7"/>
<path d="M54.5333 214.652C-1.57705 274.289 -57.3675 398.62 138.699 391.821" stroke="#F4F4F4" stroke-width="7"/>
<path d="M54.5333 214.652C-1.57705 274.289 -57.3675 398.62 138.699 391.821" stroke="url(#paint1_linear_8060_3092)" stroke-width="7"/>
<defs>
<linearGradient id="paint0_linear_8060_3092" x1="296.78" y1="6.31972" x2="253.87" y2="102.877" gradientUnits="userSpaceOnUse">
<stop stop-color="#101010" stop-opacity="0"/>
<stop offset="1" stop-color="#101010"/>
</linearGradient>
<linearGradient id="paint1_linear_8060_3092" x1="-4.34026" y1="323.83" x2="43.3478" y2="230.32" gradientUnits="userSpaceOnUse">
<stop stop-opacity="0"/>
<stop offset="1" stop-color="#101010"/>
</linearGradient>
</defs>
</svg>






 