<?xml version="1.0" encoding="UTF-8"?>
<!DOCTYPE svg PUBLIC "-//W3C//DTD SVG 1.1//EN" "http://www.w3.org/Graphics/SVG/1.1/DTD/svg11.dtd">
<svg xmlns="http://www.w3.org/2000/svg" version="1.1" width="512px" height="512px" style="shape-rendering:geometricPrecision; text-rendering:geometricPrecision; image-rendering:optimizeQuality; fill-rule:evenodd; clip-rule:evenodd" xmlns:xlink="http://www.w3.org/1999/xlink">
<g><path style="opacity:0.978" fill="#000000" d="M 163.5,-0.5 C 224.833,-0.5 286.167,-0.5 347.5,-0.5C 454.353,1.35336 509.02,55.6867 511.5,162.5C 511.5,224.5 511.5,286.5 511.5,348.5C 509.02,455.313 454.353,509.647 347.5,511.5C 286.167,511.5 224.833,511.5 163.5,511.5C 56.6467,509.647 1.98003,455.313 -0.5,348.5C -0.5,286.5 -0.5,224.5 -0.5,162.5C 1.98003,55.6867 56.6467,1.35336 163.5,-0.5 Z M 166.5,46.5 C 225.834,46.3333 285.168,46.5 344.5,47C 370.895,46.0783 395.895,51.4116 419.5,63C 439.21,75.3877 452.043,92.8877 458,115.5C 460.597,125.682 462.264,136.015 463,146.5C 464.092,182.821 464.592,219.154 464.5,255.5C 464.592,291.846 464.092,328.179 463,364.5C 458.827,426.006 425.994,458.839 364.5,463C 328.179,464.092 291.846,464.592 255.5,464.5C 219.154,464.592 182.821,464.092 146.5,463C 89.4766,460.303 56.9766,430.803 49,374.5C 48.0012,364.524 47.3345,354.524 47,344.5C 46.3333,285.167 46.3333,225.833 47,166.5C 45.6809,85.3193 85.5143,45.3193 166.5,46.5 Z M 248.5,170.5 C 288.448,169.989 316.948,187.656 334,223.5C 347.419,263.57 337.919,297.07 305.5,324C 270.139,346.76 235.473,345.76 201.5,321C 172.249,293.829 164.082,261.329 177,223.5C 191.08,192.576 214.913,174.91 248.5,170.5 Z"/></g>
<g><path style="opacity:0.961" fill="#000000" d="M 387.5,87.5 C 408.785,87.1215 420.785,97.4549 423.5,118.5C 422.002,137.665 411.669,148.332 392.5,150.5C 367.414,146.586 357.58,132.253 363,107.5C 367.884,96.6619 376.051,89.9952 387.5,87.5 Z"/></g>
<g><path style="opacity:0.974" fill="#000000" d="M 244.5,123.5 C 298.137,121.733 339.637,143.066 369,187.5C 397.035,241.118 393.035,292.118 357,340.5C 318.843,381.994 272.343,395.827 217.5,382C 173.333,367.167 143.833,337.667 129,293.5C 115.172,238.659 129.006,192.159 170.5,154C 192.273,136.69 216.94,126.523 244.5,123.5 Z M 248.5,170.5 C 214.913,174.91 191.08,192.576 177,223.5C 164.082,261.329 172.249,293.829 201.5,321C 235.473,345.76 270.139,346.76 305.5,324C 337.919,297.07 347.419,263.57 334,223.5C 316.948,187.656 288.448,169.989 248.5,170.5 Z"/></g>
</svg>
