<?xml version="1.0" encoding="UTF-8"?>
<!DOCTYPE svg PUBLIC "-//W3C//DTD SVG 1.1//EN" "http://www.w3.org/Graphics/SVG/1.1/DTD/svg11.dtd">
<svg xmlns="http://www.w3.org/2000/svg" version="1.1" width="512px" height="512px" style="shape-rendering:geometricPrecision; text-rendering:geometricPrecision; image-rendering:optimizeQuality; fill-rule:evenodd; clip-rule:evenodd" xmlns:xlink="http://www.w3.org/1999/xlink">
<g><path style="opacity:0.945" fill="#000000" d="M 395.5,21.5 C 451.643,28.8094 483.143,60.4761 490,116.5C 471.876,142.403 452.543,167.403 432,191.5C 362.563,269.604 289.063,343.77 211.5,414C 184.658,438.183 156.658,460.849 127.5,482C 96.3445,484.618 65.1778,487.118 34,489.5C 24.8333,489.667 20.3333,485.167 20.5,476C 22.7518,445.145 25.2518,414.312 28,383.5C 32.9436,375.557 38.277,367.891 44,360.5C 130.365,258.134 224.199,162.967 325.5,75C 348.165,56.1531 371.498,38.3197 395.5,21.5 Z M 401.5,44.5 C 437.149,51.9817 459.149,73.4817 467.5,109C 450.826,132.682 432.993,155.515 414,177.5C 399.542,138.542 372.709,112.209 333.5,98.5C 355.346,79.3043 378.013,61.3043 401.5,44.5 Z M 312.5,116.5 C 356.528,126.195 384.195,152.862 395.5,196.5C 394.57,198.606 393.404,200.606 392,202.5C 327.438,273.063 259.605,340.229 188.5,404C 166.37,423.803 143.37,442.47 119.5,460C 94.1859,462.447 68.8526,464.614 43.5,466.5C 45.4878,441.159 47.6545,415.825 50,390.5C 65.2816,370.283 81.2816,350.616 98,331.5C 165.699,255.968 237.199,184.301 312.5,116.5 Z"/></g>
</svg>
