<?xml version="1.0" encoding="UTF-8"?>
<!DOCTYPE svg PUBLIC "-//W3C//DTD SVG 1.1//EN" "http://www.w3.org/Graphics/SVG/1.1/DTD/svg11.dtd">
<svg xmlns="http://www.w3.org/2000/svg" version="1.1" width="512px" height="512px" style="shape-rendering:geometricPrecision; text-rendering:geometricPrecision; image-rendering:optimizeQuality; fill-rule:evenodd; clip-rule:evenodd" xmlns:xlink="http://www.w3.org/1999/xlink">
<g><path style="opacity:0.994" fill="#000000" d="M 511.5,216.5 C 511.5,242.5 511.5,268.5 511.5,294.5C 510.243,314.73 508.409,335.064 506,355.5C 504.764,373.483 499.097,389.816 489,404.5C 479.83,415.323 468.33,422.49 454.5,426C 442.267,428.396 429.934,430.063 417.5,431C 309.5,438.333 201.5,438.333 93.5,431C 81.0664,430.063 68.7331,428.396 56.5,426C 34.3257,419.825 19.1591,405.991 11,384.5C 8.3599,374.966 6.3599,365.3 5,355.5C 2.59075,335.064 0.757412,314.73 -0.5,294.5C -0.5,268.5 -0.5,242.5 -0.5,216.5C 0.757412,196.27 2.59075,175.936 5,155.5C 6.23632,137.517 11.903,121.184 22,106.5C 31.1698,95.6769 42.6698,88.5102 56.5,85C 68.7331,82.6037 81.0664,80.937 93.5,80C 201.5,72.6667 309.5,72.6667 417.5,80C 429.934,80.937 442.267,82.6037 454.5,85C 476.674,91.1752 491.841,105.009 500,126.5C 502.64,136.034 504.64,145.7 506,155.5C 508.409,175.936 510.243,196.27 511.5,216.5 Z M 203.5,180.5 C 246.944,204.772 290.278,229.272 333.5,254C 334.451,254.718 334.617,255.551 334,256.5C 290.667,281.167 247.333,305.833 204,330.5C 203.5,280.501 203.333,230.501 203.5,180.5 Z"/></g>
</svg>
