<svg width="34" height="30" viewBox="0 0 34 30" fill="none" xmlns="http://www.w3.org/2000/svg">
<g clip-path="url(#clip0_742_247)">
<path d="M10.625 13.8889C10.625 14.423 10.4011 14.9352 10.0026 15.3129C9.60409 15.6906 9.06359 15.9028 8.5 15.9028C7.93641 15.9028 7.39591 15.6906 6.9974 15.3129C6.59888 14.9352 6.375 14.423 6.375 13.8889C6.375 13.3548 6.59888 12.8425 6.9974 12.4649C7.39591 12.0872 7.93641 11.875 8.5 11.875C9.06359 11.875 9.60409 12.0872 10.0026 12.4649C10.4011 12.8425 10.625 13.3548 10.625 13.8889ZM19.125 13.8889C19.125 14.423 18.9011 14.9352 18.5026 15.3129C18.1041 15.6906 17.5636 15.9028 17 15.9028C16.4364 15.9028 15.8959 15.6906 15.4974 15.3129C15.0989 14.9352 14.875 14.423 14.875 13.8889C14.875 13.3548 15.0989 12.8425 15.4974 12.4649C15.8959 12.0872 16.4364 11.875 17 11.875C17.5636 11.875 18.1041 12.0872 18.5026 12.4649C18.9011 12.8425 19.125 13.3548 19.125 13.8889ZM25.5 15.9028C26.0636 15.9028 26.6041 15.6906 27.0026 15.3129C27.4011 14.9352 27.625 14.423 27.625 13.8889C27.625 13.3548 27.4011 12.8425 27.0026 12.4649C26.6041 12.0872 26.0636 11.875 25.5 11.875C24.9364 11.875 24.3959 12.0872 23.9974 12.4649C23.5989 12.8425 23.375 13.3548 23.375 13.8889C23.375 14.423 23.5989 14.9352 23.9974 15.3129C24.3959 15.6906 24.9364 15.9028 25.5 15.9028Z" fill="#5C5C5C"/>
<path d="M4.60063 29.6007L4.64313 29.5926C8.53187 28.8616 10.9076 27.8969 12.0126 27.3673C13.6395 27.7785 15.3163 27.9857 17 27.9835C26.3883 27.9835 34 21.672 34 13.8863C34 6.10059 26.3883 -0.210938 17 -0.210938C7.61175 -0.210938 0 6.10059 0 13.8863C0 17.4307 1.57888 20.6731 4.18625 23.1502C4.00383 24.7413 3.63025 26.3076 3.07275 27.8184L3.06638 27.8405C2.90794 28.2732 2.73502 28.7011 2.54787 29.1234C2.38 29.498 2.70513 29.9168 3.128 29.8524C3.62028 29.7761 4.11122 29.6921 4.60063 29.6007ZM6.30062 23.3415C6.33039 23.0467 6.29117 22.7492 6.18575 22.4704C6.08033 22.1916 5.91132 21.9382 5.69075 21.7284C3.43825 19.5856 2.125 16.8427 2.125 13.8863C2.125 7.45795 8.5085 1.80295 17 1.80295C25.4915 1.80295 31.875 7.45795 31.875 13.8863C31.875 20.3166 25.4915 25.9696 17 25.9696C15.5021 25.9717 14.0104 25.7875 12.563 25.4218C12.0572 25.2934 11.5192 25.3465 11.0521 25.5709C10.2298 25.9656 8.41712 26.7188 5.45487 27.3693C5.86814 26.0545 6.15128 24.7061 6.30062 23.3415Z" fill="#5C5C5C"/>
</g>
<defs>
<clipPath id="clip0_742_247">
<rect width="34" height="30" fill="white"/>
</clipPath>
</defs>
</svg>
