<svg width="31" height="31" viewBox="0 0 31 31" fill="none" xmlns="http://www.w3.org/2000/svg">
<g clip-path="url(#clip0_742_256)">
<path d="M15.457 29.0625C11.9761 29.0625 8.63767 27.6797 6.17625 25.2183C3.71484 22.7569 2.33203 19.4185 2.33203 15.9375C2.33203 12.4565 3.71484 9.11814 6.17625 6.65672C8.63767 4.19531 11.9761 2.8125 15.457 2.8125C18.938 2.8125 22.2764 4.19531 24.7378 6.65672C27.1992 9.11814 28.582 12.4565 28.582 15.9375C28.582 19.4185 27.1992 22.7569 24.7378 25.2183C22.2764 27.6797 18.938 29.0625 15.457 29.0625ZM15.457 30.9375C19.4353 30.9375 23.2506 29.3571 26.0636 26.5441C28.8767 23.7311 30.457 19.9157 30.457 15.9375C30.457 11.9593 28.8767 8.14394 26.0636 5.3309C23.2506 2.51785 19.4353 0.9375 15.457 0.9375C11.4788 0.9375 7.66348 2.51785 4.85043 5.3309C2.03738 8.14394 0.457031 11.9593 0.457031 15.9375C0.457031 19.9157 2.03738 23.7311 4.85043 26.5441C7.66348 29.3571 11.4788 30.9375 15.457 30.9375Z" fill="#5C5C5C"/>
<path d="M17.2007 13.29L12.9069 13.8281L12.7532 14.5406L13.5969 14.6962C14.1482 14.8275 14.2569 15.0262 14.1369 15.5756L12.7532 22.0781C12.3894 23.76 12.9501 24.5512 14.2682 24.5512C15.2901 24.5512 16.4769 24.0787 17.0151 23.43L17.1801 22.65C16.8051 22.98 16.2576 23.1112 15.8938 23.1112C15.3782 23.1112 15.1907 22.7494 15.3238 22.1119L17.2007 13.29ZM17.3319 9.375C17.3319 9.87228 17.1344 10.3492 16.7828 10.7008C16.4311 11.0525 15.9542 11.25 15.4569 11.25C14.9597 11.25 14.4827 11.0525 14.1311 10.7008C13.7795 10.3492 13.5819 9.87228 13.5819 9.375C13.5819 8.87772 13.7795 8.40081 14.1311 8.04917C14.4827 7.69754 14.9597 7.5 15.4569 7.5C15.9542 7.5 16.4311 7.69754 16.7828 8.04917C17.1344 8.40081 17.3319 8.87772 17.3319 9.375Z" fill="#5C5C5C"/>
</g>
<defs>
<clipPath id="clip0_742_256">
<rect width="30" height="30" fill="white" transform="translate(0.457031 0.9375)"/>
</clipPath>
</defs>
</svg>
