<svg width="184" height="346" viewBox="0 0 184 346" fill="none" xmlns="http://www.w3.org/2000/svg">
<g opacity="0.994">
<mask id="path-1-outside-1_742_334" maskUnits="userSpaceOnUse" x="-45.4836" y="-36.4349" width="380.175" height="418.359" fill="black">
<rect fill="white" x="-45.4836" y="-36.4349" width="380.175" height="418.359"/>
<path fill-rule="evenodd" clip-rule="evenodd" d="M45.2033 261.131C46.2184 260.521 47.0895 259.84 47.8167 259.086C47.8769 259.12 47.9377 259.154 47.9979 259.187C48.3672 258.839 48.7368 258.492 49.1061 258.143C49.1828 258.192 49.2671 258.218 49.3593 258.225C49.696 257.848 50.0653 257.5 50.4675 257.181C50.5596 257.188 50.6439 257.215 50.7206 257.263C51.0827 256.936 51.4279 256.594 51.7569 256.238C51.849 256.245 51.9333 256.272 52.01 256.32C52.5315 255.869 53.02 255.391 53.4752 254.882C53.5519 254.93 53.6362 254.957 53.7283 254.963C55.0076 253.895 56.3209 252.945 57.6685 252.115C57.6378 251.814 57.7455 251.736 57.9909 251.879C58.3926 251.348 58.8221 251.032 59.2803 250.937C59.6824 250.618 60.0517 250.27 60.3885 249.893C60.4806 249.899 60.5649 249.926 60.6416 249.974C61.0037 249.647 61.3489 249.305 61.6779 248.95C61.9804 249.029 62.1233 248.89 62.1068 248.536C62.1835 248.584 62.2678 248.611 62.3599 248.618C62.7606 248.315 63.1064 247.974 63.3962 247.593C63.4729 247.641 63.5572 247.668 63.6493 247.675C65.0993 246.439 66.5618 245.375 68.0371 244.483C68.324 244.163 68.6277 243.857 68.9481 243.567C69.0249 243.615 69.1091 243.641 69.2013 243.648C70.021 242.949 70.8741 242.296 71.7615 241.693C70.8845 240.997 70.2875 240.112 69.9702 239.036C69.6548 236.918 69.7618 234.823 70.291 232.752C70.9272 230.782 71.7271 228.875 72.6903 227.031C96.4385 187.356 120.166 147.668 143.873 107.962C144.543 106.863 145.29 105.817 146.116 104.822C146.056 104.789 145.995 104.755 145.935 104.721C147.397 102.8 148.894 100.905 150.426 99.0372C150.565 98.8655 150.641 98.6705 150.655 98.4531C150.731 98.5014 150.815 98.5281 150.908 98.5346C151.276 98.0881 151.583 97.6069 151.832 97.0921C151.971 97.1967 152.097 97.1884 152.211 97.0654C152.647 96.4707 153.08 95.8826 153.511 95.2982C154.772 94.1911 156.023 93.0089 157.264 91.7534C158.569 90.6673 159.833 89.5325 161.055 88.3479C161.246 88.2966 161.439 88.245 161.63 88.1937C162.015 87.6591 162.48 87.2849 163.026 87.0728C163.855 86.2565 164.762 85.516 165.746 84.8505C165.839 84.8568 165.923 84.8837 166 84.932C166.354 84.6256 166.676 84.2903 166.964 83.9268C167.04 83.9747 167.124 84.002 167.217 84.0083C167.467 83.7919 167.718 83.5754 167.968 83.359C168.061 83.3653 168.145 83.3926 168.221 83.4405C168.459 83.1776 168.697 82.9146 168.935 82.6518C169.011 82.6996 169.096 82.7269 169.188 82.7333C169.74 82.4191 170.228 82.0391 170.656 81.5932C170.992 81.5034 171.328 81.4131 171.664 81.3233C172.546 80.7163 173.419 80.1341 174.28 79.5768C174.572 79.6446 174.8 79.5338 174.962 79.2447C175.284 79.1766 175.596 79.093 175.897 78.9941C176.008 78.7196 176.189 78.6215 176.435 78.7006C176.595 78.5771 176.737 78.4394 176.864 78.2869C177.308 78.1839 177.74 78.0682 178.159 77.94C178.507 77.6673 178.852 77.4254 179.198 77.2135C179.451 77.1955 179.702 77.1781 179.955 77.1601C180.252 76.9309 180.552 76.7013 180.85 76.4722C181.446 76.3916 182.045 76.2312 182.648 75.9903C182.771 75.886 182.866 75.7612 182.933 75.6152C183.474 75.5201 184.013 75.4255 184.553 75.3305C184.672 75.199 184.791 75.0676 184.91 74.9361C185.258 74.8927 185.607 74.849 185.955 74.8056C186.217 74.6355 186.48 74.4656 186.743 74.2956C187.79 74.029 188.857 73.7928 189.946 73.5868C190.017 73.468 190.087 73.3498 190.159 73.231C190.447 73.1539 190.734 73.0768 191.022 72.9997C191.516 73.0305 191.973 73.0077 192.392 72.9314C192.463 72.8126 192.533 72.6944 192.605 72.5756C192.893 72.4985 193.18 72.4214 193.468 72.3443C193.637 72.3987 193.806 72.4529 193.974 72.5073C194.63 72.2136 195.337 71.9744 196.095 71.7897C196.264 71.8441 196.433 71.8984 196.602 71.9528C196.924 71.8165 197.249 71.6798 197.571 71.5435C197.74 71.5979 197.909 71.6522 198.078 71.7066C198.497 71.5445 198.916 71.3823 199.335 71.2203C199.721 71.3642 200.068 71.3207 200.38 71.0898C200.548 71.1442 200.717 71.1984 200.886 71.2528C201.187 71.1607 201.462 71.0371 201.712 70.8821C202.097 71.026 202.445 70.9826 202.756 70.7516C202.925 70.806 203.094 70.8603 203.263 70.9147C203.793 70.8278 204.274 70.6991 204.701 70.5292C205.279 70.5734 205.856 70.6182 206.433 70.6625C206.612 70.5974 206.791 70.4997 206.972 70.369C207.344 70.4185 207.718 70.4676 208.091 70.5171C208.322 70.2529 208.622 70.2222 208.991 70.4252C209.158 70.274 209.363 70.2689 209.604 70.4103C209.845 70.3459 210.083 70.282 210.324 70.2176C210.605 70.4291 210.871 70.4577 211.118 70.3035C211.626 70.3699 212.095 70.3936 212.525 70.3746C212.772 70.2204 213.037 70.249 213.319 70.4606C213.354 70.4014 213.39 70.3418 213.425 70.2827C214.154 70.411 214.886 70.4637 215.626 70.4397C215.661 70.3806 215.698 70.3209 215.733 70.2618C215.945 70.3907 216.175 70.4784 216.42 70.5256C216.661 70.4613 216.899 70.3973 217.14 70.3329C218.162 70.5069 219.187 70.6805 220.209 70.8546C220.245 70.7959 220.281 70.7354 220.316 70.6767C220.966 70.8012 221.616 70.9257 222.266 71.0502C222.302 70.9915 222.338 70.931 222.373 70.8723C222.663 70.9932 222.952 71.116 223.242 71.2369C223.277 71.1782 223.313 71.1177 223.348 71.059C223.63 71.2703 223.895 71.2993 224.142 71.145C224.432 71.2659 224.721 71.3887 225.011 71.5096C225.202 71.4583 225.395 71.4067 225.587 71.3554C227.833 71.8483 230.206 72.4567 232.707 73.1815C232.742 73.1228 232.778 73.0623 232.813 73.0036C233.735 73.1899 234.652 73.5414 235.563 74.059C235.599 74.0003 235.635 73.9398 235.67 73.8811C236.176 74.2146 236.682 74.3776 237.189 74.3702C238.535 74.7966 239.875 75.383 241.208 76.1313C241.243 76.0725 241.279 76.0121 241.314 75.9533C241.736 76.1882 242.16 76.4241 242.583 76.659C242.618 76.6002 242.654 76.5398 242.689 76.4811C244.217 77.2126 245.715 78.0063 247.182 78.8617C247.217 78.803 247.254 78.7425 247.289 78.6838C270.329 91.3787 283.535 110.741 286.91 136.772C288.148 151.897 285.201 166.129 278.072 179.467C245.198 234.228 212.385 289.023 179.631 343.851C169.863 338.609 161.959 331.268 155.918 321.826C144.705 303.101 142.939 283.56 150.62 263.204C151.94 260.461 153.262 257.717 154.582 254.973C180.423 211.955 206.171 168.963 231.822 125.992C233.392 124.005 235.165 122.186 237.145 120.534C237.491 120.514 237.777 120.337 238.005 120.004C238.081 120.053 238.166 120.079 238.258 120.086C238.605 119.844 238.951 119.602 239.297 119.359C240.003 119.282 240.65 119.109 241.24 118.839C241.409 118.894 241.577 118.947 241.746 119.002C242.377 118.769 243.028 118.893 243.697 119.376C245.252 106.586 246.931 93.7632 248.734 80.9105C248.69 80.8473 248.649 80.7838 248.606 80.7207C247.859 81.2017 247.227 81.7205 246.709 82.2744C246.633 82.2262 246.548 82.1994 246.456 82.1929C246.061 82.4914 245.716 82.8333 245.419 83.2174C244.872 83.3565 244.418 83.6768 244.058 84.1796C243.965 84.1731 243.881 84.1464 243.805 84.0981C242.512 85.1421 241.175 86.1962 239.796 87.2634C239.703 87.2569 239.618 87.2302 239.542 87.1819C239.14 87.584 238.734 87.9915 238.328 88.4035C237.792 88.5185 237.363 88.8322 237.038 89.3464C236.551 89.4112 236.12 89.7253 235.749 90.2893C235.159 90.4699 234.598 90.8695 234.065 91.4873C234.005 91.454 233.944 91.4198 233.884 91.3865C232.591 92.4305 231.254 93.4847 229.874 94.5518C229.782 94.5453 229.697 94.5186 229.621 94.4703C229.217 94.8774 228.811 95.2848 228.407 95.6919C227.868 95.8109 227.438 96.1246 227.117 96.6348C227.041 96.5865 226.957 96.5598 226.864 96.5533C226.454 96.8932 226.062 97.2478 225.684 97.6163C225.624 97.5831 225.562 97.5488 225.503 97.5155C224.989 98.0862 224.476 98.4717 223.963 98.6749C223.585 99.0435 223.193 99.398 222.783 99.7379C222.69 99.7314 222.606 99.7047 222.53 99.6564C221.612 100.22 220.777 100.943 220.025 101.821C219.49 101.936 219.061 102.25 218.736 102.764C218.165 102.905 217.651 103.291 217.196 103.923C216.913 103.835 216.71 103.939 216.586 104.236C217.55 104.94 218.112 105.885 218.271 107.071C218.383 107.589 218.497 108.105 218.61 108.623C218.479 112.796 217.209 116.597 214.802 120.023C207.216 132.959 199.439 145.946 191.47 158.984C184.808 170.378 177.99 181.764 171.015 193.142C164.353 204.535 157.534 215.921 150.56 227.3C149.438 229.442 148.124 231.637 146.618 233.882C140.927 244.278 133.201 253.043 123.44 260.181C123.117 260.374 122.819 260.603 122.545 260.869C122.452 260.863 122.368 260.836 122.292 260.788C121.947 261.192 121.625 261.528 121.328 261.793C120.945 261.803 120.635 261.986 120.395 262.341C120.335 262.308 120.274 262.274 120.214 262.241C119.975 262.596 119.664 262.779 119.281 262.789C119.042 263.145 118.732 263.328 118.349 263.338C118.189 263.709 117.927 263.88 117.56 263.848C117.332 264.181 117.046 264.357 116.7 264.377C116.581 264.578 116.413 264.723 116.199 264.81C116.102 264.637 116.053 264.65 116.055 264.849C115.34 265.16 114.658 265.59 114.012 266.143C113.689 266.211 113.377 266.295 113.077 266.393C112.509 266.792 111.961 267.138 111.428 267.433C111.175 267.451 110.923 267.468 110.671 267.486C110.586 267.791 110.407 267.89 110.133 267.78C109.787 267.992 109.442 268.234 109.094 268.506C108.841 268.525 108.589 268.541 108.337 268.56C108.266 268.679 108.195 268.796 108.124 268.915C107.871 268.934 107.62 268.95 107.367 268.969C107.248 269.101 107.129 269.231 107.01 269.363C106.431 269.607 105.855 269.761 105.284 269.826C105.165 269.958 105.046 270.088 104.927 270.22C104.536 270.237 104.14 270.294 103.738 270.389C103.667 270.508 103.597 270.626 103.525 270.745C101.992 271.289 100.456 271.7 98.9212 271.979C98.8023 272.111 98.6831 272.241 98.5642 272.373C97.5549 272.445 96.5967 272.702 95.6867 273.144C95.5178 273.089 95.3492 273.036 95.1804 272.981C94.3057 273.227 93.4551 273.506 92.6279 273.814C92.459 273.759 92.2905 273.706 92.1216 273.651C91.5638 273.774 91.001 273.975 90.4324 274.253C90.2635 274.198 90.095 274.145 89.9261 274.09C89.1571 274.259 88.3888 274.465 87.6241 274.707C87.2387 274.564 86.8908 274.606 86.5796 274.838C86.3376 274.696 86.1334 274.702 85.9667 274.852C85.3302 274.811 84.7173 274.826 84.1282 274.897C83.9615 275.048 83.7574 275.053 83.5153 274.912C83.2041 275.143 82.8558 275.186 82.4709 275.042C82.4353 275.101 82.3999 275.161 82.3643 275.22C81.9344 275.24 81.4654 275.216 80.9574 275.149C80.7907 275.3 80.5866 275.305 80.3446 275.164C80.309 275.223 80.2736 275.283 80.238 275.342C79.4563 275.302 78.6749 275.263 77.8932 275.223C77.662 275.487 77.3619 275.518 76.9926 275.315C76.7527 275.38 76.513 275.444 76.2732 275.508C75.275 275.428 74.2763 275.346 73.2781 275.265C73.0307 275.42 72.7658 275.39 72.4841 275.179C72.2442 275.243 72.0045 275.308 71.7647 275.372C71.2707 275.255 70.7771 275.139 70.2831 275.022C70.2475 275.081 70.2122 275.141 70.1766 275.2C69.784 275.041 69.4233 275.037 69.0947 275.191C68.6008 275.074 68.1071 274.958 67.6132 274.841C67.5776 274.9 67.5422 274.96 67.5066 275.019C67.2249 274.808 66.96 274.779 66.7125 274.933C66.423 274.812 66.1333 274.69 65.8438 274.569C65.8082 274.628 65.7729 274.688 65.7373 274.747C65.069 274.628 64.3586 274.471 63.6055 274.272C63.5699 274.331 63.5345 274.391 63.4989 274.45C63.2094 274.329 62.9197 274.207 62.6302 274.086C62.5946 274.144 62.5593 274.205 62.5237 274.263C62.2342 274.142 61.9444 274.02 61.6549 273.899C61.6193 273.958 61.584 274.018 61.5484 274.077C61.2589 273.956 60.9691 273.833 60.6796 273.712C60.6441 273.771 60.6087 273.831 60.5731 273.89C59.8979 273.672 59.2231 273.456 58.5479 273.238C58.3435 273.376 58.1267 273.334 57.8977 273.113C57.5166 273.193 57.1309 273.096 56.7412 272.826C56.7056 272.885 56.6702 272.945 56.6346 273.004C55.7782 272.685 54.9222 272.368 54.0657 272.049C54.0302 272.108 53.9948 272.168 53.9592 272.227C52.0029 271.486 50.0009 270.729 47.9527 269.953C47.9171 270.012 47.8817 270.072 47.8461 270.131C47.0118 269.654 46.1542 269.236 45.2745 268.878C45.1769 268.706 45.1289 268.719 45.1306 268.917C20.9183 257.346 6.49005 238.509 1.84626 212.408C-0.436965 194.737 2.93397 178.349 11.9591 163.248C44.2525 109.389 76.5459 55.5305 108.839 1.67185C126.86 12.1534 137.784 27.5975 141.609 48.0042C143.813 63.1858 141.225 77.3213 133.85 90.4099C113.276 124.699 92.7016 158.988 72.1275 193.277C71.5685 194.247 71.0976 195.269 70.7134 196.345C66.1771 203.844 61.6608 211.352 57.1644 218.869C56.2971 220.021 55.424 221.175 54.5461 222.334C53.5646 223.225 52.5993 224.131 51.6504 225.051C51.5736 225.003 51.4894 224.976 51.3972 224.97C50.9071 225.373 50.4179 225.753 49.9293 226.11C49.6368 226.042 49.4094 226.152 49.2473 226.442C49.0256 226.419 48.8213 226.424 48.6344 226.457C48.4456 226.797 48.1828 226.967 47.8458 226.967C47.6769 226.912 47.5084 226.858 47.3395 226.804C47.0055 227.092 46.6219 227.195 46.1885 227.112C45.6693 226.979 45.163 226.816 44.6696 226.623C42.9474 239.485 41.2267 252.343 39.5074 265.196C39.5677 265.229 39.6284 265.264 39.6887 265.297C40.3992 264.776 41.1148 264.186 41.8359 263.527C42.0812 263.67 42.1889 263.592 42.1582 263.291C42.2184 263.324 42.2792 263.359 42.3394 263.392C42.7015 263.065 43.0467 262.723 43.3757 262.367C43.9605 262.164 44.45 261.785 44.8436 261.227C45.0316 261.367 45.1516 261.334 45.2033 261.131Z"/>
</mask>
<path fill-rule="evenodd" clip-rule="evenodd" d="M45.2033 261.131C46.2184 260.521 47.0895 259.84 47.8167 259.086C47.8769 259.12 47.9377 259.154 47.9979 259.187C48.3672 258.839 48.7368 258.492 49.1061 258.143C49.1828 258.192 49.2671 258.218 49.3593 258.225C49.696 257.848 50.0653 257.5 50.4675 257.181C50.5596 257.188 50.6439 257.215 50.7206 257.263C51.0827 256.936 51.4279 256.594 51.7569 256.238C51.849 256.245 51.9333 256.272 52.01 256.32C52.5315 255.869 53.02 255.391 53.4752 254.882C53.5519 254.93 53.6362 254.957 53.7283 254.963C55.0076 253.895 56.3209 252.945 57.6685 252.115C57.6378 251.814 57.7455 251.736 57.9909 251.879C58.3926 251.348 58.8221 251.032 59.2803 250.937C59.6824 250.618 60.0517 250.27 60.3885 249.893C60.4806 249.899 60.5649 249.926 60.6416 249.974C61.0037 249.647 61.3489 249.305 61.6779 248.95C61.9804 249.029 62.1233 248.89 62.1068 248.536C62.1835 248.584 62.2678 248.611 62.3599 248.618C62.7606 248.315 63.1064 247.974 63.3962 247.593C63.4729 247.641 63.5572 247.668 63.6493 247.675C65.0993 246.439 66.5618 245.375 68.0371 244.483C68.324 244.163 68.6277 243.857 68.9481 243.567C69.0249 243.615 69.1091 243.641 69.2013 243.648C70.021 242.949 70.8741 242.296 71.7615 241.693C70.8845 240.997 70.2875 240.112 69.9702 239.036C69.6548 236.918 69.7618 234.823 70.291 232.752C70.9272 230.782 71.7271 228.875 72.6903 227.031C96.4385 187.356 120.166 147.668 143.873 107.962C144.543 106.863 145.29 105.817 146.116 104.822C146.056 104.789 145.995 104.755 145.935 104.721C147.397 102.8 148.894 100.905 150.426 99.0372C150.565 98.8655 150.641 98.6705 150.655 98.4531C150.731 98.5014 150.815 98.5281 150.908 98.5346C151.276 98.0881 151.583 97.6069 151.832 97.0921C151.971 97.1967 152.097 97.1884 152.211 97.0654C152.647 96.4707 153.08 95.8826 153.511 95.2982C154.772 94.1911 156.023 93.0089 157.264 91.7534C158.569 90.6673 159.833 89.5325 161.055 88.3479C161.246 88.2966 161.439 88.245 161.63 88.1937C162.015 87.6591 162.48 87.2849 163.026 87.0728C163.855 86.2565 164.762 85.516 165.746 84.8505C165.839 84.8568 165.923 84.8837 166 84.932C166.354 84.6256 166.676 84.2903 166.964 83.9268C167.04 83.9747 167.124 84.002 167.217 84.0083C167.467 83.7919 167.718 83.5754 167.968 83.359C168.061 83.3653 168.145 83.3926 168.221 83.4405C168.459 83.1776 168.697 82.9146 168.935 82.6518C169.011 82.6996 169.096 82.7269 169.188 82.7333C169.74 82.4191 170.228 82.0391 170.656 81.5932C170.992 81.5034 171.328 81.4131 171.664 81.3233C172.546 80.7163 173.419 80.1341 174.28 79.5768C174.572 79.6446 174.8 79.5338 174.962 79.2447C175.284 79.1766 175.596 79.093 175.897 78.9941C176.008 78.7196 176.189 78.6215 176.435 78.7006C176.595 78.5771 176.737 78.4394 176.864 78.2869C177.308 78.1839 177.74 78.0682 178.159 77.94C178.507 77.6673 178.852 77.4254 179.198 77.2135C179.451 77.1955 179.702 77.1781 179.955 77.1601C180.252 76.9309 180.552 76.7013 180.85 76.4722C181.446 76.3916 182.045 76.2312 182.648 75.9903C182.771 75.886 182.866 75.7612 182.933 75.6152C183.474 75.5201 184.013 75.4255 184.553 75.3305C184.672 75.199 184.791 75.0676 184.91 74.9361C185.258 74.8927 185.607 74.849 185.955 74.8056C186.217 74.6355 186.48 74.4656 186.743 74.2956C187.79 74.029 188.857 73.7928 189.946 73.5868C190.017 73.468 190.087 73.3498 190.159 73.231C190.447 73.1539 190.734 73.0768 191.022 72.9997C191.516 73.0305 191.973 73.0077 192.392 72.9314C192.463 72.8126 192.533 72.6944 192.605 72.5756C192.893 72.4985 193.18 72.4214 193.468 72.3443C193.637 72.3987 193.806 72.4529 193.974 72.5073C194.63 72.2136 195.337 71.9744 196.095 71.7897C196.264 71.8441 196.433 71.8984 196.602 71.9528C196.924 71.8165 197.249 71.6798 197.571 71.5435C197.74 71.5979 197.909 71.6522 198.078 71.7066C198.497 71.5445 198.916 71.3823 199.335 71.2203C199.721 71.3642 200.068 71.3207 200.38 71.0898C200.548 71.1442 200.717 71.1984 200.886 71.2528C201.187 71.1607 201.462 71.0371 201.712 70.8821C202.097 71.026 202.445 70.9826 202.756 70.7516C202.925 70.806 203.094 70.8603 203.263 70.9147C203.793 70.8278 204.274 70.6991 204.701 70.5292C205.279 70.5734 205.856 70.6182 206.433 70.6625C206.612 70.5974 206.791 70.4997 206.972 70.369C207.344 70.4185 207.718 70.4676 208.091 70.5171C208.322 70.2529 208.622 70.2222 208.991 70.4252C209.158 70.274 209.363 70.2689 209.604 70.4103C209.845 70.3459 210.083 70.282 210.324 70.2176C210.605 70.4291 210.871 70.4577 211.118 70.3035C211.626 70.3699 212.095 70.3936 212.525 70.3746C212.772 70.2204 213.037 70.249 213.319 70.4606C213.354 70.4014 213.39 70.3418 213.425 70.2827C214.154 70.411 214.886 70.4637 215.626 70.4397C215.661 70.3806 215.698 70.3209 215.733 70.2618C215.945 70.3907 216.175 70.4784 216.42 70.5256C216.661 70.4613 216.899 70.3973 217.14 70.3329C218.162 70.5069 219.187 70.6805 220.209 70.8546C220.245 70.7959 220.281 70.7354 220.316 70.6767C220.966 70.8012 221.616 70.9257 222.266 71.0502C222.302 70.9915 222.338 70.931 222.373 70.8723C222.663 70.9932 222.952 71.116 223.242 71.2369C223.277 71.1782 223.313 71.1177 223.348 71.059C223.63 71.2703 223.895 71.2993 224.142 71.145C224.432 71.2659 224.721 71.3887 225.011 71.5096C225.202 71.4583 225.395 71.4067 225.587 71.3554C227.833 71.8483 230.206 72.4567 232.707 73.1815C232.742 73.1228 232.778 73.0623 232.813 73.0036C233.735 73.1899 234.652 73.5414 235.563 74.059C235.599 74.0003 235.635 73.9398 235.67 73.8811C236.176 74.2146 236.682 74.3776 237.189 74.3702C238.535 74.7966 239.875 75.383 241.208 76.1313C241.243 76.0725 241.279 76.0121 241.314 75.9533C241.736 76.1882 242.16 76.4241 242.583 76.659C242.618 76.6002 242.654 76.5398 242.689 76.4811C244.217 77.2126 245.715 78.0063 247.182 78.8617C247.217 78.803 247.254 78.7425 247.289 78.6838C270.329 91.3787 283.535 110.741 286.91 136.772C288.148 151.897 285.201 166.129 278.072 179.467C245.198 234.228 212.385 289.023 179.631 343.851C169.863 338.609 161.959 331.268 155.918 321.826C144.705 303.101 142.939 283.56 150.62 263.204C151.94 260.461 153.262 257.717 154.582 254.973C180.423 211.955 206.171 168.963 231.822 125.992C233.392 124.005 235.165 122.186 237.145 120.534C237.491 120.514 237.777 120.337 238.005 120.004C238.081 120.053 238.166 120.079 238.258 120.086C238.605 119.844 238.951 119.602 239.297 119.359C240.003 119.282 240.65 119.109 241.24 118.839C241.409 118.894 241.577 118.947 241.746 119.002C242.377 118.769 243.028 118.893 243.697 119.376C245.252 106.586 246.931 93.7632 248.734 80.9105C248.69 80.8473 248.649 80.7838 248.606 80.7207C247.859 81.2017 247.227 81.7205 246.709 82.2744C246.633 82.2262 246.548 82.1994 246.456 82.1929C246.061 82.4914 245.716 82.8333 245.419 83.2174C244.872 83.3565 244.418 83.6768 244.058 84.1796C243.965 84.1731 243.881 84.1464 243.805 84.0981C242.512 85.1421 241.175 86.1962 239.796 87.2634C239.703 87.2569 239.618 87.2302 239.542 87.1819C239.14 87.584 238.734 87.9915 238.328 88.4035C237.792 88.5185 237.363 88.8322 237.038 89.3464C236.551 89.4112 236.12 89.7253 235.749 90.2893C235.159 90.4699 234.598 90.8695 234.065 91.4873C234.005 91.454 233.944 91.4198 233.884 91.3865C232.591 92.4305 231.254 93.4847 229.874 94.5518C229.782 94.5453 229.697 94.5186 229.621 94.4703C229.217 94.8774 228.811 95.2848 228.407 95.6919C227.868 95.8109 227.438 96.1246 227.117 96.6348C227.041 96.5865 226.957 96.5598 226.864 96.5533C226.454 96.8932 226.062 97.2478 225.684 97.6163C225.624 97.5831 225.562 97.5488 225.503 97.5155C224.989 98.0862 224.476 98.4717 223.963 98.6749C223.585 99.0435 223.193 99.398 222.783 99.7379C222.69 99.7314 222.606 99.7047 222.53 99.6564C221.612 100.22 220.777 100.943 220.025 101.821C219.49 101.936 219.061 102.25 218.736 102.764C218.165 102.905 217.651 103.291 217.196 103.923C216.913 103.835 216.71 103.939 216.586 104.236C217.55 104.94 218.112 105.885 218.271 107.071C218.383 107.589 218.497 108.105 218.61 108.623C218.479 112.796 217.209 116.597 214.802 120.023C207.216 132.959 199.439 145.946 191.47 158.984C184.808 170.378 177.99 181.764 171.015 193.142C164.353 204.535 157.534 215.921 150.56 227.3C149.438 229.442 148.124 231.637 146.618 233.882C140.927 244.278 133.201 253.043 123.44 260.181C123.117 260.374 122.819 260.603 122.545 260.869C122.452 260.863 122.368 260.836 122.292 260.788C121.947 261.192 121.625 261.528 121.328 261.793C120.945 261.803 120.635 261.986 120.395 262.341C120.335 262.308 120.274 262.274 120.214 262.241C119.975 262.596 119.664 262.779 119.281 262.789C119.042 263.145 118.732 263.328 118.349 263.338C118.189 263.709 117.927 263.88 117.56 263.848C117.332 264.181 117.046 264.357 116.7 264.377C116.581 264.578 116.413 264.723 116.199 264.81C116.102 264.637 116.053 264.65 116.055 264.849C115.34 265.16 114.658 265.59 114.012 266.143C113.689 266.211 113.377 266.295 113.077 266.393C112.509 266.792 111.961 267.138 111.428 267.433C111.175 267.451 110.923 267.468 110.671 267.486C110.586 267.791 110.407 267.89 110.133 267.78C109.787 267.992 109.442 268.234 109.094 268.506C108.841 268.525 108.589 268.541 108.337 268.56C108.266 268.679 108.195 268.796 108.124 268.915C107.871 268.934 107.62 268.95 107.367 268.969C107.248 269.101 107.129 269.231 107.01 269.363C106.431 269.607 105.855 269.761 105.284 269.826C105.165 269.958 105.046 270.088 104.927 270.22C104.536 270.237 104.14 270.294 103.738 270.389C103.667 270.508 103.597 270.626 103.525 270.745C101.992 271.289 100.456 271.7 98.9212 271.979C98.8023 272.111 98.6831 272.241 98.5642 272.373C97.5549 272.445 96.5967 272.702 95.6867 273.144C95.5178 273.089 95.3492 273.036 95.1804 272.981C94.3057 273.227 93.4551 273.506 92.6279 273.814C92.459 273.759 92.2905 273.706 92.1216 273.651C91.5638 273.774 91.001 273.975 90.4324 274.253C90.2635 274.198 90.095 274.145 89.9261 274.09C89.1571 274.259 88.3888 274.465 87.6241 274.707C87.2387 274.564 86.8908 274.606 86.5796 274.838C86.3376 274.696 86.1334 274.702 85.9667 274.852C85.3302 274.811 84.7173 274.826 84.1282 274.897C83.9615 275.048 83.7574 275.053 83.5153 274.912C83.2041 275.143 82.8558 275.186 82.4709 275.042C82.4353 275.101 82.3999 275.161 82.3643 275.22C81.9344 275.24 81.4654 275.216 80.9574 275.149C80.7907 275.3 80.5866 275.305 80.3446 275.164C80.309 275.223 80.2736 275.283 80.238 275.342C79.4563 275.302 78.6749 275.263 77.8932 275.223C77.662 275.487 77.3619 275.518 76.9926 275.315C76.7527 275.38 76.513 275.444 76.2732 275.508C75.275 275.428 74.2763 275.346 73.2781 275.265C73.0307 275.42 72.7658 275.39 72.4841 275.179C72.2442 275.243 72.0045 275.308 71.7647 275.372C71.2707 275.255 70.7771 275.139 70.2831 275.022C70.2475 275.081 70.2122 275.141 70.1766 275.2C69.784 275.041 69.4233 275.037 69.0947 275.191C68.6008 275.074 68.1071 274.958 67.6132 274.841C67.5776 274.9 67.5422 274.96 67.5066 275.019C67.2249 274.808 66.96 274.779 66.7125 274.933C66.423 274.812 66.1333 274.69 65.8438 274.569C65.8082 274.628 65.7729 274.688 65.7373 274.747C65.069 274.628 64.3586 274.471 63.6055 274.272C63.5699 274.331 63.5345 274.391 63.4989 274.45C63.2094 274.329 62.9197 274.207 62.6302 274.086C62.5946 274.144 62.5593 274.205 62.5237 274.263C62.2342 274.142 61.9444 274.02 61.6549 273.899C61.6193 273.958 61.584 274.018 61.5484 274.077C61.2589 273.956 60.9691 273.833 60.6796 273.712C60.6441 273.771 60.6087 273.831 60.5731 273.89C59.8979 273.672 59.2231 273.456 58.5479 273.238C58.3435 273.376 58.1267 273.334 57.8977 273.113C57.5166 273.193 57.1309 273.096 56.7412 272.826C56.7056 272.885 56.6702 272.945 56.6346 273.004C55.7782 272.685 54.9222 272.368 54.0657 272.049C54.0302 272.108 53.9948 272.168 53.9592 272.227C52.0029 271.486 50.0009 270.729 47.9527 269.953C47.9171 270.012 47.8817 270.072 47.8461 270.131C47.0118 269.654 46.1542 269.236 45.2745 268.878C45.1769 268.706 45.1289 268.719 45.1306 268.917C20.9183 257.346 6.49005 238.509 1.84626 212.408C-0.436965 194.737 2.93397 178.349 11.9591 163.248C44.2525 109.389 76.5459 55.5305 108.839 1.67185C126.86 12.1534 137.784 27.5975 141.609 48.0042C143.813 63.1858 141.225 77.3213 133.85 90.4099C113.276 124.699 92.7016 158.988 72.1275 193.277C71.5685 194.247 71.0976 195.269 70.7134 196.345C66.1771 203.844 61.6608 211.352 57.1644 218.869C56.2971 220.021 55.424 221.175 54.5461 222.334C53.5646 223.225 52.5993 224.131 51.6504 225.051C51.5736 225.003 51.4894 224.976 51.3972 224.97C50.9071 225.373 50.4179 225.753 49.9293 226.11C49.6368 226.042 49.4094 226.152 49.2473 226.442C49.0256 226.419 48.8213 226.424 48.6344 226.457C48.4456 226.797 48.1828 226.967 47.8458 226.967C47.6769 226.912 47.5084 226.858 47.3395 226.804C47.0055 227.092 46.6219 227.195 46.1885 227.112C45.6693 226.979 45.163 226.816 44.6696 226.623C42.9474 239.485 41.2267 252.343 39.5074 265.196C39.5677 265.229 39.6284 265.264 39.6887 265.297C40.3992 264.776 41.1148 264.186 41.8359 263.527C42.0812 263.67 42.1889 263.592 42.1582 263.291C42.2184 263.324 42.2792 263.359 42.3394 263.392C42.7015 263.065 43.0467 262.723 43.3757 262.367C43.9605 262.164 44.45 261.785 44.8436 261.227C45.0316 261.367 45.1516 261.334 45.2033 261.131Z" stroke="url(#paint0_linear_742_334)" stroke-opacity="0.11" stroke-width="2" mask="url(#path-1-outside-1_742_334)"/>
</g>
<defs>
<linearGradient id="paint0_linear_742_334" x1="-71" y1="-76.0039" x2="271.5" y2="425.496" gradientUnits="userSpaceOnUse">
<stop stop-color="white"/>
<stop offset="1" stop-color="#151515"/>
</linearGradient>
</defs>
</svg>
