<svg width="41" height="41" viewBox="0 0 41 41" fill="none" xmlns="http://www.w3.org/2000/svg">
<circle cx="20.5" cy="20.5" r="18.5" fill="#256CFA"/>
<circle cx="20.5" cy="20.5" r="19.5" stroke="#6196FF" stroke-opacity="0.44" stroke-width="2"/>
<path opacity="0.994" fill-rule="evenodd" clip-rule="evenodd" d="M13.3015 24.2973C13.3739 24.2766 13.4387 24.249 13.4957 24.2147C13.4989 24.2177 13.5021 24.2208 13.5052 24.2239C13.5336 24.2085 13.5621 24.1933 13.5905 24.178C13.5944 24.1822 13.5992 24.1852 13.6047 24.1872C13.6316 24.1695 13.66 24.1542 13.69 24.1413C13.6955 24.1432 13.7003 24.1462 13.7042 24.1504C13.7318 24.1363 13.7587 24.121 13.7847 24.1045C13.7903 24.1065 13.795 24.1095 13.7989 24.1137C13.8384 24.0946 13.8763 24.0732 13.9126 24.0495C13.9166 24.0537 13.9213 24.0567 13.9269 24.0586C14.0231 24.014 14.1194 23.9773 14.2159 23.9485C14.2189 23.9295 14.2268 23.9264 14.2395 23.9393C14.273 23.9132 14.3046 23.9009 14.3343 23.9026C14.3642 23.8896 14.3927 23.8743 14.4196 23.8567C14.4251 23.8586 14.4299 23.8616 14.4338 23.8659C14.4614 23.8517 14.4882 23.8364 14.5143 23.82C14.5316 23.8298 14.5427 23.8236 14.5475 23.8016C14.5514 23.8058 14.5561 23.8089 14.5617 23.8108C14.5913 23.7988 14.6182 23.7835 14.6422 23.7649C14.6461 23.7691 14.6509 23.7721 14.6564 23.7741C14.7659 23.722 14.8732 23.6807 14.9786 23.6501C15.0015 23.6352 15.0252 23.6214 15.0497 23.6088C15.0536 23.613 15.0583 23.6161 15.0639 23.618C15.1257 23.5885 15.1889 23.5625 15.2534 23.54C15.2109 23.4828 15.1888 23.4185 15.187 23.3472C15.2025 23.2118 15.2436 23.0848 15.3102 22.9662C15.3817 22.8556 15.4623 22.7516 15.5518 22.6541C17.6642 20.6067 19.7755 18.5582 21.8859 16.5082C21.9451 16.4517 22.0082 16.3997 22.0754 16.3522C22.0723 16.3491 22.069 16.346 22.0659 16.343C22.1874 16.249 22.3106 16.1572 22.4354 16.0676C22.4468 16.0593 22.4547 16.0486 22.4591 16.0355C22.463 16.0397 22.4678 16.0427 22.4733 16.0446C22.5033 16.0233 22.5301 15.9987 22.5539 15.9712C22.5607 15.9799 22.5686 15.9815 22.5776 15.9758C22.6141 15.9464 22.6504 15.9174 22.6865 15.8886C22.7822 15.8413 22.8786 15.7893 22.9755 15.7325C23.0736 15.6873 23.1699 15.6383 23.2645 15.5856C23.2771 15.5856 23.2898 15.5856 23.3024 15.5856C23.3348 15.5591 23.3696 15.5438 23.4066 15.5397C23.471 15.5032 23.5389 15.4726 23.6103 15.448C23.6159 15.4499 23.6207 15.4529 23.6246 15.4571C23.6514 15.4441 23.6767 15.4288 23.7004 15.4112C23.7042 15.4154 23.709 15.4185 23.7146 15.4204C23.7335 15.4112 23.7525 15.4021 23.7714 15.3929C23.777 15.3948 23.7818 15.3979 23.7856 15.4021C23.8046 15.3898 23.8235 15.3776 23.8425 15.3653C23.8464 15.3695 23.8511 15.3726 23.8567 15.3745C23.8957 15.3643 23.932 15.349 23.9657 15.3286C23.9877 15.3286 24.0099 15.3286 24.032 15.3286C24.0962 15.3058 24.1594 15.2844 24.2215 15.2644C24.2384 15.2733 24.2542 15.2703 24.2689 15.2552C24.2898 15.2563 24.3104 15.2563 24.3305 15.2552C24.3418 15.2401 24.3545 15.2371 24.3684 15.246C24.3802 15.241 24.3912 15.2349 24.4015 15.2276C24.4305 15.2286 24.4589 15.2286 24.4868 15.2276C24.5127 15.2166 24.5379 15.2074 24.5626 15.2001C24.5784 15.2032 24.5941 15.2062 24.61 15.2093C24.632 15.2001 24.6542 15.1909 24.6763 15.1817C24.7143 15.1866 24.7537 15.1866 24.7947 15.1817C24.804 15.1774 24.8119 15.1712 24.8184 15.1634C24.8532 15.1664 24.8879 15.1695 24.9226 15.1726C24.9321 15.1664 24.9416 15.1603 24.9511 15.1542C24.9731 15.1573 24.9953 15.1603 25.0174 15.1634C25.0363 15.1573 25.0553 15.1511 25.0742 15.145C25.1429 15.1459 25.2124 15.1489 25.2827 15.1542C25.289 15.1481 25.2953 15.142 25.3016 15.1358C25.3206 15.1358 25.3395 15.1358 25.3585 15.1358C25.3883 15.1459 25.4168 15.152 25.4438 15.1542C25.4501 15.1481 25.4564 15.142 25.4627 15.1358C25.4817 15.1358 25.5006 15.1358 25.5196 15.1358C25.529 15.142 25.5385 15.1481 25.548 15.1542C25.5931 15.1469 25.6405 15.1439 25.6901 15.145C25.6996 15.1511 25.7091 15.1573 25.7185 15.1634C25.7406 15.1603 25.7628 15.1573 25.7849 15.1542C25.7943 15.1603 25.8038 15.1664 25.8133 15.1726C25.8417 15.1695 25.8701 15.1664 25.8986 15.1634C25.9199 15.1786 25.942 15.1816 25.9649 15.1726C25.9744 15.1787 25.9838 15.1848 25.9933 15.1909C26.0133 15.1902 26.0323 15.1871 26.0502 15.1817C26.0715 15.1969 26.0936 15.2 26.1165 15.1909C26.126 15.197 26.1354 15.2032 26.1449 15.2093C26.1789 15.2127 26.2106 15.2127 26.2397 15.2093C26.2744 15.2215 26.3091 15.2338 26.3439 15.246C26.3559 15.2449 26.3685 15.2419 26.3818 15.2368C26.4039 15.246 26.426 15.2552 26.4481 15.2644C26.4667 15.2519 26.4856 15.255 26.505 15.2735C26.5177 15.267 26.5304 15.27 26.5429 15.2827C26.5587 15.2827 26.5744 15.2827 26.5902 15.2827C26.6041 15.3004 26.6199 15.3065 26.6376 15.3011C26.6678 15.3135 26.6962 15.3227 26.7229 15.3286C26.7406 15.3232 26.7564 15.3293 26.7703 15.347C26.7734 15.3439 26.7766 15.3408 26.7797 15.3378C26.8224 15.3577 26.8665 15.373 26.9124 15.3837C26.9155 15.3806 26.9187 15.3776 26.9219 15.3745C26.9328 15.3859 26.9455 15.3951 26.9598 15.4021C26.9756 15.4021 26.9913 15.4021 27.0071 15.4021C27.0671 15.4296 27.1272 15.4571 27.1872 15.4847C27.1903 15.4816 27.1935 15.4785 27.1967 15.4755C27.2346 15.4938 27.2725 15.5122 27.3104 15.5306C27.3135 15.5275 27.3167 15.5244 27.3198 15.5214C27.3356 15.5336 27.3514 15.5459 27.3672 15.5581C27.3703 15.5551 27.3735 15.552 27.3767 15.5489C27.3905 15.5666 27.4063 15.5727 27.4241 15.5673C27.4399 15.5795 27.4556 15.5918 27.4714 15.604C27.484 15.604 27.4967 15.604 27.5093 15.604C27.6392 15.6713 27.775 15.7478 27.9168 15.8335C27.9199 15.8305 27.9231 15.8274 27.9262 15.8243C27.9798 15.8509 28.0304 15.8877 28.0778 15.9345C28.081 15.9315 28.0842 15.9283 28.0873 15.9253C28.1129 15.9541 28.1413 15.9725 28.1726 15.9804C28.2483 16.0288 28.321 16.0869 28.3905 16.1548C28.3936 16.1518 28.3969 16.1486 28.4 16.1456C28.4221 16.167 28.4442 16.1885 28.4663 16.2099C28.4694 16.2068 28.4727 16.2037 28.4758 16.2007C28.5576 16.2708 28.6366 16.3443 28.7127 16.421C28.7158 16.418 28.719 16.4149 28.7221 16.4118C29.9288 17.5715 30.4215 18.9791 30.2002 20.6346C30.0273 21.5846 29.6119 22.4108 28.9543 23.1131C26.0328 25.9375 23.1145 28.7649 20.1993 31.5953C19.6855 31.1122 19.3207 30.5309 19.105 29.8511C18.7243 28.5155 18.9375 27.2854 19.7445 26.1608C19.8708 26.0139 19.9972 25.8671 20.1235 25.7202C22.4195 23.5018 24.7094 21.2834 26.9929 19.0648C27.1221 18.9685 27.261 18.8859 27.4098 18.817C27.4314 18.8214 27.4519 18.8153 27.4714 18.7986C27.4753 18.8028 27.48 18.8058 27.4856 18.8078C27.5109 18.7986 27.5361 18.7894 27.5614 18.7802C27.6061 18.7871 27.6487 18.7871 27.6894 18.7802C27.6988 18.7864 27.7083 18.7924 27.7178 18.7986C27.7604 18.7946 27.7983 18.813 27.8315 18.8537C28.1376 18.0932 28.4519 17.3328 28.7742 16.5725C28.7726 16.5679 28.7711 16.5633 28.7695 16.5587C28.7157 16.576 28.6683 16.5975 28.6274 16.623C28.6235 16.6187 28.6188 16.6157 28.6132 16.6138C28.584 16.6256 28.5572 16.641 28.5326 16.6597C28.4967 16.6592 28.4636 16.6714 28.4331 16.6964C28.4276 16.6945 28.4228 16.6915 28.4189 16.6872C28.3223 16.7301 28.2228 16.7729 28.1205 16.8157C28.1149 16.8138 28.1101 16.8108 28.1063 16.8066C28.0749 16.8247 28.0432 16.843 28.0115 16.8616C27.9767 16.8599 27.9452 16.8721 27.9168 16.8984C27.8858 16.8943 27.8541 16.9065 27.822 16.9351C27.7828 16.9365 27.7417 16.9518 27.6988 16.981C27.6957 16.978 27.6925 16.9748 27.6894 16.9718C27.5927 17.0147 27.4932 17.0575 27.3909 17.1003C27.3853 17.0984 27.3806 17.0954 27.3767 17.0911C27.3451 17.1095 27.3135 17.1279 27.2819 17.1462C27.2469 17.1447 27.2153 17.1569 27.1872 17.1829C27.1833 17.1787 27.1786 17.1757 27.173 17.1738C27.1422 17.1879 27.1122 17.2032 27.0829 17.2197C27.0798 17.2166 27.0766 17.2135 27.0735 17.2105C27.0325 17.2371 26.9946 17.2523 26.9598 17.2564C26.9305 17.2728 26.9006 17.2881 26.8698 17.3023C26.8642 17.3004 26.8594 17.2973 26.8555 17.2931C26.7899 17.3127 26.7267 17.3433 26.666 17.3849C26.6313 17.3832 26.5997 17.3954 26.5713 17.4216C26.5339 17.4209 26.496 17.4361 26.4576 17.4675C26.4417 17.4574 26.4275 17.4604 26.415 17.4767C26.4626 17.5358 26.4816 17.6032 26.4718 17.6787C26.4702 17.7123 26.4687 17.7459 26.4671 17.7796C26.3903 18.034 26.2497 18.2467 26.0454 18.4176C25.3664 19.0878 24.6747 19.7579 23.9704 20.428C23.3735 21.0186 22.7671 21.6061 22.1512 22.1905C21.5543 22.7811 20.9479 23.3686 20.332 23.9531C20.2278 24.0663 20.1109 24.1795 19.9814 24.2927C19.4606 24.8379 18.8416 25.2494 18.1243 25.5274C18.1013 25.5339 18.0792 25.5431 18.058 25.555C18.0524 25.553 18.0476 25.55 18.0438 25.5458C18.0159 25.565 17.9906 25.5803 17.968 25.5917C17.9443 25.586 17.9222 25.5921 17.9016 25.61C17.8985 25.607 17.8953 25.6039 17.8922 25.6009C17.8716 25.6188 17.8495 25.6249 17.8258 25.6192C17.8053 25.6371 17.7832 25.6433 17.7595 25.6376C17.7436 25.6578 17.7246 25.6639 17.7027 25.6559C17.6831 25.6726 17.6627 25.6788 17.6411 25.6743C17.6305 25.6847 17.6178 25.6908 17.6032 25.6926C17.6 25.6804 17.5968 25.6804 17.5937 25.6926C17.5446 25.7 17.4956 25.7152 17.4468 25.7385C17.4259 25.7374 17.4053 25.7374 17.3853 25.7385C17.3438 25.7537 17.3044 25.7659 17.2668 25.7753C17.251 25.7722 17.2353 25.7691 17.2194 25.7661C17.2092 25.7834 17.1966 25.7866 17.1815 25.7753C17.1568 25.7826 17.1316 25.7918 17.1057 25.8028C17.0899 25.7998 17.0742 25.7967 17.0584 25.7936C17.052 25.7998 17.0458 25.8058 17.0394 25.812C17.0236 25.809 17.0079 25.8058 16.992 25.8028C16.9826 25.809 16.9731 25.815 16.9636 25.8212C16.924 25.8266 16.8861 25.8266 16.8499 25.8212C16.8404 25.8273 16.831 25.8334 16.8215 25.8395C16.7972 25.8341 16.7719 25.8311 16.7457 25.8303C16.7393 25.8365 16.7331 25.8426 16.7267 25.8487C16.6236 25.8569 16.5225 25.8569 16.4235 25.8487C16.4141 25.8549 16.4046 25.8609 16.3951 25.8671C16.3319 25.8549 16.2688 25.8549 16.2056 25.8671C16.1961 25.8609 16.1867 25.8549 16.1772 25.8487C16.1194 25.8494 16.0625 25.8526 16.0066 25.8579C15.9972 25.8517 15.9877 25.8457 15.9782 25.8395C15.9419 25.8379 15.904 25.841 15.8645 25.8487C15.855 25.8426 15.8456 25.8365 15.8361 25.8303C15.7861 25.8281 15.7355 25.8281 15.6845 25.8303C15.6632 25.8152 15.6411 25.8121 15.6182 25.8212C15.6056 25.8085 15.593 25.8055 15.5803 25.812C15.5418 25.799 15.5039 25.7898 15.4666 25.7844C15.4538 25.791 15.4412 25.7879 15.4287 25.7753C15.4057 25.7844 15.3836 25.7812 15.3623 25.7661C15.3592 25.7691 15.356 25.7722 15.3529 25.7753C15.3261 25.7694 15.2977 25.7602 15.2676 25.7477C15.2549 25.7542 15.2422 25.7512 15.2297 25.7385C15.2265 25.7416 15.2234 25.7447 15.2202 25.7477C15.1728 25.7324 15.1255 25.7172 15.0781 25.7018C15.0595 25.7142 15.0406 25.7112 15.0212 25.6926C15.0054 25.6926 14.9896 25.6926 14.9739 25.6926C14.9138 25.6713 14.8538 25.6498 14.7938 25.6284C14.7761 25.6338 14.7603 25.6277 14.7465 25.61C14.7307 25.61 14.7149 25.61 14.6991 25.61C14.6707 25.5947 14.6422 25.5795 14.6138 25.5641C14.6106 25.5672 14.6075 25.5703 14.6043 25.5733C14.5828 25.5571 14.5607 25.5509 14.538 25.555C14.5096 25.5396 14.4812 25.5244 14.4527 25.5091C14.4496 25.5121 14.4464 25.5152 14.4433 25.5182C14.4294 25.5006 14.4136 25.4945 14.3959 25.4999C14.3801 25.4877 14.3643 25.4754 14.3485 25.4632C14.3453 25.4662 14.3422 25.4693 14.339 25.4723C14.2999 25.4541 14.2589 25.4327 14.2159 25.4081C14.2127 25.4111 14.2095 25.4142 14.2064 25.4173C14.1906 25.405 14.1748 25.3927 14.159 25.3805C14.1558 25.3836 14.1527 25.3867 14.1495 25.3897C14.1337 25.3775 14.1179 25.3652 14.1021 25.353C14.099 25.356 14.0958 25.3591 14.0927 25.3622C14.0769 25.35 14.0611 25.3377 14.0453 25.3255C14.0421 25.3285 14.039 25.3316 14.0358 25.3346C13.9979 25.3101 13.96 25.2857 13.9221 25.2612C13.9073 25.2663 13.8947 25.2602 13.8842 25.2428C13.8595 25.2415 13.8374 25.2292 13.8179 25.2061C13.8147 25.2091 13.8116 25.2123 13.8084 25.2153C13.761 25.1816 13.7137 25.148 13.6663 25.1143C13.6631 25.1173 13.66 25.1205 13.6568 25.1235C13.5488 25.0457 13.4383 24.9662 13.3252 24.8848C13.322 24.8879 13.3189 24.891 13.3157 24.894C13.2723 24.851 13.2265 24.8111 13.1783 24.7747C13.1752 24.7625 13.172 24.7625 13.1689 24.7747C11.8717 23.6647 11.2953 22.2694 11.4397 20.5887C11.5903 19.465 12.0672 18.5133 12.8704 17.7337C15.7413 14.9553 18.6123 12.1769 21.4832 9.39844C22.4179 10.3394 22.8348 11.4686 22.7339 12.7858C22.6194 13.7552 22.2277 14.5814 21.559 15.2644C19.7303 17.033 17.9016 18.8016 16.073 20.5703C16.0226 20.6207 15.9769 20.6758 15.9356 20.7355C15.5334 21.1217 15.1323 21.5088 14.7322 21.8968C14.66 21.9533 14.5873 22.0099 14.5143 22.0666C14.4393 22.1053 14.3651 22.145 14.2917 22.186C14.2877 22.1817 14.283 22.1787 14.2774 22.1768C14.2407 22.1935 14.2044 22.2088 14.1685 22.2227C14.1516 22.2137 14.1358 22.2167 14.1211 22.2319C14.1079 22.2268 14.0952 22.2238 14.0832 22.2227C14.066 22.2405 14.047 22.2466 14.0263 22.241C14.0169 22.2349 14.0074 22.2288 13.9979 22.2227C13.9727 22.2349 13.9474 22.2349 13.9221 22.2227C13.8924 22.206 13.864 22.1876 13.8368 22.1676C13.5193 22.9298 13.2019 23.6917 12.8846 24.4534C12.8878 24.4564 12.8909 24.4595 12.8941 24.4626C12.9463 24.4423 13 24.4178 13.0552 24.3891C13.0679 24.402 13.0758 24.3989 13.0788 24.3799C13.082 24.383 13.0852 24.3861 13.0883 24.3891C13.116 24.375 13.1428 24.3596 13.1689 24.3432C13.2081 24.3404 13.2445 24.3251 13.2778 24.2973C13.2871 24.309 13.295 24.309 13.3015 24.2973Z" fill="white"/>
<path opacity="0.01" fill-rule="evenodd" clip-rule="evenodd" d="M22.9778 15.7287C22.9709 15.7154 22.9709 15.7154 22.9778 15.7287V15.7287Z" fill="white"/>
<path opacity="0.01" fill-rule="evenodd" clip-rule="evenodd" d="M13.302 24.299C13.2952 24.2857 13.2952 24.2857 13.302 24.299V24.299Z" fill="white"/>
<path opacity="0.01" fill-rule="evenodd" clip-rule="evenodd" d="M13.168 24.7734C13.1713 24.7734 13.1746 24.7734 13.1779 24.7734C13.1761 24.7802 13.1728 24.7802 13.168 24.7734Z" fill="white"/>
<path opacity="0.01" fill-rule="evenodd" clip-rule="evenodd" d="M18.125 25.5312C18.1383 25.538 18.1383 25.538 18.125 25.5312V25.5312Z" fill="white"/>
<path opacity="0.01" fill-rule="evenodd" clip-rule="evenodd" d="M17.5938 25.6953C17.597 25.6953 17.6004 25.6953 17.6037 25.6953C17.6018 25.7021 17.5985 25.7021 17.5938 25.6953Z" fill="white"/>
</svg>
