<svg width="28" height="30" viewBox="0 0 28 30" fill="none" xmlns="http://www.w3.org/2000/svg">
<path d="M14.7625 0.314752C14.6624 0.21498 14.5436 0.135822 14.4127 0.0818117C14.2819 0.0278014 14.1417 0 14 0C13.8583 0 13.7181 0.0278014 13.5872 0.0818117C13.4564 0.135822 13.3376 0.21498 13.2375 0.314752L0.314463 13.1711C0.214521 13.2708 0.135306 13.389 0.0813489 13.5192C0.0273915 13.6494 -0.00025103 13.7888 1.71768e-06 13.9296V28.9286C1.71768e-06 29.2128 0.113463 29.4853 0.315425 29.6862C0.517387 29.8871 0.791307 30 1.07692 30H10.7692C11.0548 30 11.3288 29.8871 11.5307 29.6862C11.7327 29.4853 11.8462 29.2128 11.8462 28.9286V20.3578H16.1538V28.9286C16.1538 29.2128 16.2673 29.4853 16.4693 29.6862C16.6712 29.8871 16.9452 30 17.2308 30H26.9231C27.2087 30 27.4826 29.8871 27.6846 29.6862C27.8865 29.4853 28 29.2128 28 28.9286V13.9296C28.0002 13.7888 27.9726 13.6494 27.9186 13.5192C27.8647 13.389 27.7855 13.2708 27.6855 13.1711L24.7692 10.272V3.216C24.7692 2.93185 24.6558 2.65935 24.4538 2.45843C24.2518 2.25751 23.9779 2.14464 23.6923 2.14464H21.5385C21.2528 2.14464 20.9789 2.25751 20.777 2.45843C20.575 2.65935 20.4615 2.93185 20.4615 3.216V5.98653L14.7625 0.314752ZM2.15385 27.8573V14.3731L14 2.58818L25.8462 14.3731V27.8573H18.3077V19.2864C18.3077 19.0023 18.1942 18.7298 17.9923 18.5288C17.7903 18.3279 17.5164 18.215 17.2308 18.215H10.7692C10.4836 18.215 10.2097 18.3279 10.0077 18.5288C9.80577 18.7298 9.69231 19.0023 9.69231 19.2864V27.8573H2.15385Z" fill="white"/>
</svg>
