<svg width="27" height="27" viewBox="0 0 27 27" fill="none" xmlns="http://www.w3.org/2000/svg">
<circle cx="13.5" cy="13.5" r="13.5" fill="#FF8F2D"/>
<path d="M9.51025 10.2031C9.59375 8.09717 11.0317 6.50146 13.7222 6.50146C16.1714 6.50146 17.8228 7.95801 17.8228 9.94336C17.8228 11.3813 17.0991 12.3926 15.8745 13.1255C14.6777 13.8306 14.3345 14.3223 14.3345 15.2778V15.8438H12.4141L12.4048 15.1016C12.3584 13.7935 12.9243 12.9585 14.1953 12.1978C15.3179 11.5205 15.7168 10.9824 15.7168 10.0269C15.7168 8.97852 14.8911 8.2085 13.6201 8.2085C12.3398 8.2085 11.5142 8.97852 11.4307 10.2031H9.51025ZM13.3882 20.1392C12.7109 20.1392 12.1729 19.6196 12.1729 18.9424C12.1729 18.2651 12.7109 17.7456 13.3882 17.7456C14.084 17.7456 14.6128 18.2651 14.6128 18.9424C14.6128 19.6196 14.084 20.1392 13.3882 20.1392Z" fill="white"/>
</svg>
