<svg width="24" height="24" viewBox="0 0 24 24" fill="none" xmlns="http://www.w3.org/2000/svg">
<path d="M18.899 16.775C20.4956 14.6414 21.2246 11.9823 20.9393 9.33278C20.6541 6.6833 19.3758 4.24023 17.3617 2.49536C15.3476 0.750492 12.7473 -0.166628 10.0842 -0.0713854C7.42112 0.0238573 4.89297 1.12439 3.00868 3.00868C1.12439 4.89297 0.0238573 7.42112 -0.0713854 10.0842C-0.166628 12.7473 0.750492 15.3476 2.49536 17.3617C4.24023 19.3758 6.6833 20.6541 9.33278 20.9393C11.9823 21.2246 14.6414 20.4956 16.775 18.899L21.875 23.999L23.999 21.879L18.899 16.775ZM10.499 17.999C9.01566 17.999 7.56561 17.5592 6.33224 16.735C5.09887 15.9109 4.13758 14.7396 3.56992 13.3691C3.00227 11.9987 2.85374 10.4907 3.14313 9.03584C3.43252 7.58098 4.14682 6.24461 5.19572 5.19572C6.24461 4.14682 7.58098 3.43252 9.03584 3.14313C10.4907 2.85374 11.9987 3.00227 13.3691 3.56992C14.7396 4.13758 15.9109 5.09887 16.735 6.33224C17.5592 7.56561 17.999 9.01566 17.999 10.499C17.9972 12.4876 17.2064 14.3942 15.8003 15.8003C14.3942 17.2064 12.4876 17.9972 10.499 17.999Z" fill="#6C6C6C"/>
</svg>
