<svg width="27" height="27" viewBox="0 0 27 27" fill="none" xmlns="http://www.w3.org/2000/svg">
<circle cx="13.5" cy="13.5" r="13.5" fill="#2E9D69"/>
<path d="M11.3111 11.9374C11.3111 12.2818 11.3911 12.6081 11.5336 12.8981C11.2273 13.2906 11.0367 13.7774 11.0111 14.3081C10.423 13.6906 10.0611 12.8556 10.0611 11.9381C10.0611 9.80619 12.0123 8.12119 14.223 8.57494C15.5242 8.84244 16.5786 9.89057 16.8561 11.1899C16.9398 11.5824 16.9555 11.9668 16.913 12.3343C16.8767 12.6456 16.6036 12.8756 16.2898 12.8756H16.2617C15.8917 12.8756 15.6317 12.5462 15.6723 12.1787C15.6998 11.9318 15.6855 11.6724 15.6223 11.4081C15.4361 10.6249 14.7973 9.99057 14.013 9.80994C12.5842 9.48182 11.3105 10.5643 11.3105 11.9381L11.3111 11.9374ZM8.87983 11.1281C9.05108 10.1324 9.53796 9.22494 10.293 8.51682C11.2486 7.62119 12.4998 7.17869 13.8117 7.25994C16.2823 7.41994 18.2142 9.58432 18.1855 12.1756C18.1736 13.2606 17.2648 14.1243 16.1805 14.1243H14.6767C14.5242 13.6062 14.0505 13.2249 13.483 13.2249C12.7923 13.2249 12.233 13.7843 12.233 14.4749C12.233 15.1656 12.7923 15.7249 13.483 15.7249C13.8192 15.7249 14.1236 15.5906 14.348 15.3743H16.1805C17.9423 15.3743 19.4105 13.9712 19.4355 12.2099C19.4817 8.94682 17.0305 6.21557 13.8923 6.01307C12.2273 5.90494 10.648 6.47057 9.43858 7.60557C8.50171 8.48369 7.87858 9.64619 7.65421 10.8968C7.58608 11.2768 7.88671 11.6256 8.27233 11.6256C8.56733 11.6256 8.83046 11.4199 8.87983 11.1287V11.1281ZM13.4986 16.6249C11.1892 16.6249 9.19108 18.0574 8.52671 20.1887C8.42358 20.5181 8.60796 20.8687 8.93733 20.9718C9.26608 21.0712 9.61671 20.8899 9.71983 20.5612C10.213 18.9799 11.7661 17.8749 13.498 17.8749C15.2298 17.8749 16.7836 18.9799 17.2761 20.5612C17.3598 20.8287 17.6061 20.9999 17.873 20.9999C17.9348 20.9999 17.9967 20.9906 18.0592 20.9718C18.3886 20.8687 18.5723 20.5181 18.4698 20.1887C17.8055 18.0574 15.8073 16.6249 13.498 16.6249H13.4986Z" fill="white"/>
</svg>
