<svg width="24" height="30" viewBox="0 0 24 30" fill="none" xmlns="http://www.w3.org/2000/svg">
<path d="M0 3.75006C0 2.75548 0.421427 1.80164 1.17157 1.09837C1.92172 0.395095 2.93913 0 4 0L20 0C21.0609 0 22.0783 0.395095 22.8284 1.09837C23.5786 1.80164 24 2.75548 24 3.75006V29.063C23.9999 29.2326 23.9508 29.3989 23.8578 29.5444C23.7648 29.6899 23.6315 29.809 23.472 29.889C23.3125 29.969 23.1329 30.007 22.9522 29.9989C22.7715 29.9908 22.5966 29.9369 22.446 29.843L12 24.5648L1.554 29.843C1.40341 29.9369 1.22846 29.9908 1.04778 29.9989C0.867105 30.007 0.687466 29.969 0.527999 29.889C0.368532 29.809 0.235208 29.6899 0.142228 29.5444C0.0492481 29.3989 9.34408e-05 29.2326 0 29.063V3.75006ZM4 1.87503C3.46957 1.87503 2.96086 2.07258 2.58579 2.42421C2.21071 2.77585 2 3.25277 2 3.75006V27.3117L11.446 22.6579C11.6101 22.5555 11.8029 22.5008 12 22.5008C12.1971 22.5008 12.3899 22.5555 12.554 22.6579L22 27.3117V3.75006C22 3.25277 21.7893 2.77585 21.4142 2.42421C21.0391 2.07258 20.5304 1.87503 20 1.87503H4Z" fill="#5C5C5C"/>
</svg>
