<svg width="27" height="27" viewBox="0 0 27 27" fill="none" xmlns="http://www.w3.org/2000/svg">
<circle cx="13.5" cy="13.5" r="13.5" fill="#2268FF"/>
<path d="M16.625 6H10.375C8.65188 6 7.25 7.40188 7.25 9.125V18.5C7.25 19.8787 8.37125 21 9.75 21H16.625C18.3481 21 19.75 19.5981 19.75 17.875V9.125C19.75 7.40188 18.3481 6 16.625 6ZM18.5 9.125V16H11V7.25H13.5V12.4669C13.5 12.8563 13.9944 13.0231 14.2306 12.7137L15.0625 11.6244L15.8944 12.7137C16.1306 13.0231 16.625 12.8563 16.625 12.4669V7.25C17.6588 7.25 18.5 8.09125 18.5 9.125ZM9.75 7.365V16C9.2925 16 8.86938 16.1325 8.5 16.3475V9.125C8.5 8.31125 9.02438 7.62375 9.75 7.365ZM16.625 19.75H9.75C8.10688 19.7206 8.10813 17.2788 9.75 17.25H18.5V17.875C18.5 18.9087 17.6588 19.75 16.625 19.75Z" fill="white"/>
</svg>
