<svg width="20" height="18" viewBox="0 0 20 18" fill="none" xmlns="http://www.w3.org/2000/svg">
<path d="M3.98195 16.7063C3.89055 17.2058 4.40382 17.5961 4.85616 17.3734L10.0006 14.8356L15.1439 17.3734C15.5962 17.5961 16.1095 17.2058 16.0181 16.7074L15.0454 11.3866L19.1727 7.61137C19.5594 7.25815 19.3602 6.61245 18.8422 6.54271L13.1025 5.75977L10.5432 0.892262C10.4944 0.793594 10.4175 0.710231 10.3213 0.651859C10.2252 0.593486 10.1138 0.5625 10 0.5625C9.88625 0.5625 9.77482 0.593486 9.67867 0.651859C9.58253 0.710231 9.50561 0.793594 9.45685 0.892262L6.89753 5.76089L1.15779 6.54383C0.641 6.61358 0.440613 7.25928 0.826153 7.6125L4.95459 11.3877L3.98195 16.7086V16.7063ZM9.7299 13.5937L5.41044 15.7243L6.22371 11.273C6.24276 11.1705 6.23531 11.0651 6.202 10.9661C6.1687 10.867 6.11056 10.7773 6.0327 10.7049L2.62729 7.58888L7.37564 6.94093C7.47397 6.92667 7.56723 6.88975 7.64743 6.83333C7.72764 6.77691 7.79241 6.70266 7.83618 6.61695L9.99825 2.50201L12.1627 6.61695C12.2064 6.70266 12.2712 6.77691 12.3514 6.83333C12.4316 6.88975 12.5249 6.92667 12.6232 6.94093L17.3716 7.58775L13.9661 10.7038C13.8881 10.7763 13.8299 10.8662 13.7965 10.9655C13.7632 11.0647 13.7559 11.1703 13.7751 11.273L14.5884 15.7243L10.2689 13.5937C10.1854 13.5523 10.0928 13.5308 9.99884 13.5308C9.90486 13.5308 9.81342 13.5523 9.7299 13.5937Z" fill="white"/>
</svg>
