<svg width="345" height="97" viewBox="0 0 345 97" fill="none" xmlns="http://www.w3.org/2000/svg">
<g clip-path="url(#clip0_792_1655)">
<rect width="345" height="97" rx="20" fill="url(#paint0_linear_792_1655)"/>
<g opacity="0.994">
<mask id="path-2-outside-1_792_1655" maskUnits="userSpaceOnUse" x="278.23" y="62.8594" width="68" height="81" fill="black">
<rect fill="white" x="278.23" y="62.8594" width="68" height="81"/>
<path fill-rule="evenodd" clip-rule="evenodd" d="M338.707 90.2712C338.456 90.3431 338.232 90.4384 338.034 90.5573C338.023 90.5468 338.012 90.536 338.001 90.5255C337.903 90.5786 337.804 90.6314 337.706 90.6845C337.692 90.6698 337.676 90.6593 337.656 90.6527C337.563 90.7137 337.465 90.7668 337.361 90.8116C337.342 90.8049 337.325 90.7944 337.312 90.7798C337.216 90.8288 337.123 90.8818 337.033 90.9387C337.014 90.9321 336.997 90.9216 336.984 90.907C336.847 90.9731 336.716 91.0471 336.59 91.1295C336.576 91.1148 336.56 91.1043 336.541 91.0977C336.207 91.2522 335.874 91.3793 335.54 91.4791C335.529 91.5449 335.502 91.5554 335.458 91.5109C335.342 91.6012 335.233 91.6438 335.13 91.638C335.026 91.6828 334.927 91.7359 334.834 91.797C334.815 91.7903 334.799 91.7798 334.785 91.7652C334.689 91.8141 334.596 91.8672 334.506 91.9241C334.446 91.8901 334.408 91.9114 334.391 91.9877C334.378 91.9731 334.361 91.9626 334.342 91.9559C334.239 91.9975 334.146 92.0503 334.063 92.1148C334.049 92.1002 334.033 92.0897 334.014 92.083C333.635 92.2633 333.263 92.4063 332.898 92.5121C332.819 92.5639 332.737 92.6116 332.652 92.6552C332.638 92.6405 332.622 92.6301 332.603 92.6234C332.388 92.7254 332.169 92.8157 331.946 92.8936C332.093 93.0916 332.17 93.3141 332.176 93.5611C332.122 94.0299 331.98 94.4695 331.749 94.8802C331.502 95.2632 331.223 95.6233 330.912 95.9609C323.596 103.05 316.283 110.143 308.974 117.241C308.769 117.437 308.55 117.617 308.318 117.782C308.328 117.792 308.34 117.803 308.35 117.814C307.93 118.139 307.503 118.457 307.07 118.767C307.031 118.796 307.004 118.833 306.988 118.878C306.975 118.864 306.959 118.853 306.939 118.847C306.835 118.921 306.743 119.005 306.66 119.101C306.637 119.071 306.609 119.065 306.578 119.085C306.452 119.187 306.326 119.287 306.201 119.387C305.869 119.551 305.536 119.731 305.2 119.927C304.86 120.084 304.526 120.253 304.199 120.436C304.155 120.436 304.111 120.436 304.068 120.436C303.955 120.528 303.835 120.581 303.707 120.595C303.484 120.721 303.249 120.827 303.001 120.913C302.982 120.906 302.965 120.895 302.952 120.881C302.859 120.926 302.771 120.979 302.689 121.04C302.676 121.025 302.659 121.015 302.64 121.008C302.574 121.04 302.509 121.072 302.443 121.103C302.424 121.097 302.407 121.086 302.394 121.072C302.328 121.114 302.263 121.156 302.197 121.199C302.184 121.184 302.167 121.174 302.148 121.167C302.013 121.202 301.887 121.255 301.77 121.326C301.694 121.326 301.617 121.326 301.541 121.326C301.318 121.405 301.099 121.479 300.884 121.548C300.826 121.517 300.771 121.528 300.72 121.58C300.648 121.576 300.576 121.576 300.507 121.58C300.468 121.632 300.424 121.643 300.376 121.612C300.335 121.629 300.297 121.65 300.261 121.675C300.16 121.672 300.062 121.672 299.965 121.675C299.876 121.714 299.789 121.745 299.703 121.771C299.648 121.76 299.594 121.75 299.539 121.739C299.462 121.771 299.386 121.803 299.309 121.834C299.177 121.818 299.041 121.818 298.899 121.834C298.867 121.85 298.839 121.871 298.817 121.898C298.696 121.887 298.576 121.877 298.456 121.866C298.423 121.887 298.39 121.909 298.357 121.93C298.281 121.919 298.204 121.909 298.128 121.898C298.062 121.919 297.996 121.94 297.931 121.962C297.693 121.959 297.452 121.948 297.209 121.93C297.187 121.951 297.165 121.972 297.143 121.993C297.077 121.993 297.012 121.993 296.946 121.993C296.843 121.959 296.744 121.937 296.651 121.93C296.629 121.951 296.607 121.972 296.585 121.993C296.52 121.993 296.454 121.993 296.388 121.993C296.355 121.972 296.323 121.951 296.29 121.93C296.134 121.955 295.97 121.965 295.798 121.962C295.765 121.94 295.732 121.919 295.699 121.898C295.623 121.909 295.546 121.919 295.469 121.93C295.437 121.909 295.404 121.887 295.371 121.866C295.273 121.877 295.174 121.887 295.076 121.898C295.002 121.845 294.925 121.835 294.846 121.866C294.813 121.845 294.78 121.824 294.747 121.803C294.678 121.805 294.613 121.816 294.551 121.834C294.477 121.782 294.4 121.771 294.321 121.803C294.288 121.781 294.255 121.76 294.222 121.739C294.105 121.727 293.995 121.727 293.894 121.739C293.774 121.697 293.654 121.654 293.533 121.612C293.491 121.616 293.448 121.626 293.402 121.644C293.325 121.612 293.249 121.58 293.172 121.548C293.108 121.591 293.042 121.581 292.975 121.517C292.931 121.539 292.887 121.529 292.844 121.485C292.789 121.485 292.735 121.485 292.68 121.485C292.632 121.424 292.577 121.402 292.516 121.421C292.411 121.378 292.313 121.346 292.22 121.326C292.159 121.345 292.104 121.323 292.056 121.262C292.046 121.273 292.034 121.283 292.024 121.294C291.876 121.225 291.723 121.172 291.564 121.135C291.553 121.146 291.542 121.156 291.531 121.167C291.494 121.127 291.45 121.096 291.4 121.072C291.345 121.072 291.291 121.072 291.236 121.072C291.028 120.976 290.82 120.881 290.612 120.785C290.602 120.796 290.59 120.807 290.58 120.817C290.448 120.754 290.317 120.69 290.186 120.627C290.175 120.637 290.164 120.648 290.153 120.658C290.098 120.616 290.044 120.573 289.989 120.531C289.978 120.542 289.967 120.552 289.956 120.563C289.908 120.502 289.853 120.481 289.792 120.499C289.737 120.457 289.683 120.415 289.628 120.372C289.584 120.372 289.54 120.372 289.497 120.372C289.047 120.139 288.576 119.874 288.085 119.578C288.075 119.588 288.063 119.599 288.053 119.609C287.867 119.517 287.692 119.39 287.528 119.228C287.517 119.238 287.506 119.249 287.495 119.26C287.406 119.16 287.308 119.096 287.199 119.069C286.937 118.902 286.685 118.7 286.445 118.465C286.434 118.476 286.423 118.486 286.412 118.497C286.335 118.423 286.258 118.348 286.182 118.274C286.171 118.285 286.16 118.296 286.149 118.306C285.866 118.063 285.592 117.809 285.329 117.543C285.318 117.554 285.307 117.565 285.296 117.575C281.117 113.56 279.41 108.686 280.176 102.954C280.775 99.6642 282.214 96.8035 284.492 94.3716C294.611 84.5921 304.718 74.8021 314.815 65.0016C316.595 66.6742 317.859 68.6872 318.606 71.0409C319.924 75.6654 319.186 79.9247 316.391 83.8188C315.953 84.3273 315.515 84.8359 315.078 85.3445C307.126 93.0258 299.195 100.707 291.285 108.389C290.838 108.723 290.357 109.009 289.841 109.247C289.766 109.232 289.695 109.253 289.628 109.311C289.614 109.296 289.598 109.286 289.579 109.279C289.491 109.311 289.404 109.343 289.316 109.374C289.162 109.351 289.014 109.351 288.873 109.374C288.84 109.353 288.807 109.332 288.775 109.311C288.627 109.325 288.496 109.261 288.381 109.12C287.32 111.753 286.232 114.386 285.115 117.019C285.121 117.035 285.126 117.051 285.132 117.067C285.318 117.007 285.482 116.932 285.624 116.844C285.638 116.859 285.654 116.869 285.673 116.876C285.774 116.835 285.867 116.782 285.952 116.717C286.077 116.719 286.192 116.676 286.297 116.59C286.316 116.596 286.333 116.607 286.346 116.622C286.681 116.473 287.025 116.325 287.38 116.177C287.399 116.183 287.416 116.194 287.429 116.208C287.538 116.146 287.647 116.082 287.757 116.018C287.878 116.024 287.987 115.981 288.085 115.89C288.193 115.904 288.302 115.862 288.414 115.763C288.549 115.759 288.692 115.705 288.84 115.604C288.851 115.615 288.862 115.626 288.873 115.636C289.208 115.488 289.552 115.34 289.907 115.191C289.926 115.198 289.943 115.208 289.956 115.223C290.065 115.159 290.175 115.096 290.284 115.032C290.406 115.038 290.515 114.995 290.612 114.905C290.626 114.92 290.642 114.93 290.662 114.937C290.768 114.888 290.872 114.835 290.973 114.778C290.984 114.788 290.995 114.799 291.006 114.81C291.148 114.718 291.279 114.665 291.4 114.651C291.501 114.594 291.605 114.541 291.712 114.492C291.731 114.499 291.748 114.509 291.761 114.524C291.988 114.456 292.207 114.35 292.417 114.206C292.538 114.212 292.647 114.17 292.746 114.079C292.875 114.081 293.006 114.028 293.139 113.92C293.194 113.955 293.244 113.944 293.287 113.888C293.122 113.683 293.056 113.45 293.09 113.189C293.096 113.072 293.101 112.956 293.107 112.839C293.372 111.958 293.859 111.222 294.567 110.63C296.919 108.31 299.315 105.989 301.754 103.669C303.822 101.624 305.922 99.5898 308.055 97.5661C310.122 95.5213 312.223 93.487 314.356 91.4632C314.717 91.0713 315.122 90.6791 315.57 90.2871C317.374 88.3994 319.518 86.9744 322.002 86.012C322.082 85.9894 322.159 85.9576 322.232 85.9166C322.252 85.9233 322.268 85.9338 322.281 85.9484C322.378 85.882 322.466 85.8289 322.544 85.7895C322.626 85.8092 322.702 85.7879 322.774 85.7259C322.785 85.7364 322.796 85.7472 322.807 85.7577C322.878 85.6957 322.954 85.6744 323.036 85.6941C323.107 85.6321 323.184 85.6108 323.266 85.6305C323.321 85.5606 323.387 85.5393 323.463 85.567C323.53 85.5091 323.601 85.4878 323.676 85.5034C323.713 85.4675 323.757 85.4462 323.807 85.4398C323.818 85.4821 323.829 85.4821 323.84 85.4398C324.01 85.4144 324.18 85.3616 324.349 85.2809C324.421 85.2847 324.493 85.2847 324.562 85.2809C324.706 85.2284 324.842 85.1862 324.972 85.1538C325.027 85.1642 325.082 85.175 325.137 85.1855C325.172 85.1255 325.216 85.1147 325.268 85.1538C325.353 85.1283 325.441 85.0965 325.53 85.0584C325.585 85.0689 325.64 85.0797 325.694 85.0902C325.716 85.0689 325.738 85.0479 325.76 85.0266C325.815 85.0371 325.869 85.0479 325.924 85.0584C325.957 85.0371 325.99 85.0161 326.023 84.9948C326.16 84.9761 326.291 84.9761 326.416 84.9948C326.449 84.9735 326.482 84.9526 326.515 84.9313C326.599 84.95 326.687 84.9605 326.777 84.963C326.799 84.9417 326.821 84.9208 326.843 84.8995C327.2 84.8712 327.551 84.8712 327.893 84.8995C327.926 84.8782 327.959 84.8572 327.992 84.8359C328.211 84.8782 328.429 84.8782 328.648 84.8359C328.681 84.8572 328.714 84.8782 328.747 84.8995C328.947 84.8969 329.144 84.8861 329.337 84.8677C329.37 84.889 329.403 84.91 329.436 84.9313C329.561 84.937 329.693 84.9262 329.829 84.8995C329.862 84.9208 329.895 84.9417 329.928 84.963C330.101 84.971 330.276 84.971 330.453 84.963C330.527 85.0155 330.603 85.0263 330.683 84.9948C330.726 85.0387 330.77 85.0492 330.814 85.0266C330.947 85.0717 331.078 85.1035 331.208 85.122C331.252 85.0994 331.296 85.1099 331.339 85.1538C331.419 85.1223 331.495 85.1331 331.569 85.1855C331.58 85.1751 331.591 85.1642 331.602 85.1538C331.694 85.1741 331.793 85.2059 331.897 85.2491C331.941 85.2265 331.985 85.237 332.028 85.2809C332.039 85.2704 332.05 85.2596 332.061 85.2491C332.225 85.3022 332.389 85.355 332.553 85.408C332.618 85.3651 332.683 85.3756 332.75 85.4398C332.805 85.4398 332.86 85.4398 332.914 85.4398C333.122 85.5139 333.33 85.5883 333.538 85.6623C333.599 85.6436 333.654 85.6649 333.702 85.7259C333.757 85.7259 333.811 85.7259 333.866 85.7259C333.965 85.779 334.063 85.8317 334.161 85.8848C334.172 85.8743 334.183 85.8635 334.194 85.853C334.269 85.9093 334.345 85.9306 334.424 85.9166C334.522 85.9697 334.621 86.0225 334.719 86.0755C334.73 86.065 334.741 86.0542 334.752 86.0438C334.8 86.1048 334.855 86.1261 334.916 86.1073C334.971 86.1496 335.026 86.1922 335.08 86.2345C335.091 86.224 335.102 86.2132 335.113 86.2027C335.249 86.2659 335.391 86.34 335.54 86.4252C335.551 86.4147 335.562 86.4039 335.573 86.3934C335.627 86.4357 335.682 86.4783 335.737 86.5205C335.748 86.51 335.759 86.4992 335.769 86.4888C335.824 86.531 335.879 86.5736 335.934 86.6159C335.944 86.6054 335.955 86.5946 335.966 86.5841C336.021 86.6264 336.076 86.669 336.13 86.7113C336.141 86.7008 336.152 86.69 336.163 86.6795C336.295 86.7643 336.426 86.8489 336.557 86.9338C336.608 86.916 336.652 86.9372 336.688 86.9973C336.774 87.0021 336.851 87.0447 336.918 87.1245C336.929 87.114 336.94 87.1032 336.951 87.0927C337.115 87.2093 337.279 87.3257 337.443 87.4423C337.454 87.4318 337.465 87.421 337.476 87.4105C337.85 87.6798 338.233 87.955 338.625 88.237C338.636 88.2265 338.647 88.2157 338.657 88.2052C338.808 88.3543 338.966 88.4922 339.133 88.6184C339.144 88.6607 339.155 88.6607 339.166 88.6184C343.659 92.4616 345.655 97.293 345.155 103.113C344.634 107.004 342.982 110.299 340.2 112.998C330.256 122.618 320.312 132.239 310.369 141.859C307.131 138.601 305.687 134.691 306.037 130.13C306.433 126.774 307.79 123.913 310.106 121.548C316.44 115.424 322.774 109.3 329.107 103.176C329.282 103.002 329.44 102.811 329.583 102.604C330.976 101.267 332.366 99.9265 333.751 98.5832C334.001 98.3874 334.253 98.1916 334.506 97.9952C334.766 97.8613 335.023 97.7237 335.277 97.5819C335.291 97.5966 335.307 97.6071 335.326 97.6137C335.454 97.5559 335.58 97.5028 335.704 97.4548C335.762 97.486 335.817 97.4755 335.868 97.423C335.914 97.4405 335.958 97.451 335.999 97.4548C336.059 97.3931 336.124 97.3718 336.196 97.3912C336.229 97.4125 336.262 97.4335 336.295 97.4548C336.382 97.4125 336.47 97.4125 336.557 97.4548C336.66 97.5127 336.758 97.5762 336.852 97.6455C337.952 95.0064 339.052 92.3681 340.151 89.7309C340.14 89.7204 340.129 89.7096 340.118 89.6991C339.937 89.7694 339.751 89.8542 339.56 89.9534C339.516 89.9089 339.489 89.9194 339.478 89.9852C339.467 89.9747 339.456 89.9639 339.445 89.9534C339.349 90.0023 339.256 90.0554 339.166 90.1123C339.03 90.1222 338.904 90.1749 338.789 90.2712C338.757 90.2309 338.729 90.2309 338.707 90.2712Z"/>
</mask>
<path fill-rule="evenodd" clip-rule="evenodd" d="M338.707 90.2712C338.456 90.3431 338.232 90.4384 338.034 90.5573C338.023 90.5468 338.012 90.536 338.001 90.5255C337.903 90.5786 337.804 90.6314 337.706 90.6845C337.692 90.6698 337.676 90.6593 337.656 90.6527C337.563 90.7137 337.465 90.7668 337.361 90.8116C337.342 90.8049 337.325 90.7944 337.312 90.7798C337.216 90.8288 337.123 90.8818 337.033 90.9387C337.014 90.9321 336.997 90.9216 336.984 90.907C336.847 90.9731 336.716 91.0471 336.59 91.1295C336.576 91.1148 336.56 91.1043 336.541 91.0977C336.207 91.2522 335.874 91.3793 335.54 91.4791C335.529 91.5449 335.502 91.5554 335.458 91.5109C335.342 91.6012 335.233 91.6438 335.13 91.638C335.026 91.6828 334.927 91.7359 334.834 91.797C334.815 91.7903 334.799 91.7798 334.785 91.7652C334.689 91.8141 334.596 91.8672 334.506 91.9241C334.446 91.8901 334.408 91.9114 334.391 91.9877C334.378 91.9731 334.361 91.9626 334.342 91.9559C334.239 91.9975 334.146 92.0503 334.063 92.1148C334.049 92.1002 334.033 92.0897 334.014 92.083C333.635 92.2633 333.263 92.4063 332.898 92.5121C332.819 92.5639 332.737 92.6116 332.652 92.6552C332.638 92.6405 332.622 92.6301 332.603 92.6234C332.388 92.7254 332.169 92.8157 331.946 92.8936C332.093 93.0916 332.17 93.3141 332.176 93.5611C332.122 94.0299 331.98 94.4695 331.749 94.8802C331.502 95.2632 331.223 95.6233 330.912 95.9609C323.596 103.05 316.283 110.143 308.974 117.241C308.769 117.437 308.55 117.617 308.318 117.782C308.328 117.792 308.34 117.803 308.35 117.814C307.93 118.139 307.503 118.457 307.07 118.767C307.031 118.796 307.004 118.833 306.988 118.878C306.975 118.864 306.959 118.853 306.939 118.847C306.835 118.921 306.743 119.005 306.66 119.101C306.637 119.071 306.609 119.065 306.578 119.085C306.452 119.187 306.326 119.287 306.201 119.387C305.869 119.551 305.536 119.731 305.2 119.927C304.86 120.084 304.526 120.253 304.199 120.436C304.155 120.436 304.111 120.436 304.068 120.436C303.955 120.528 303.835 120.581 303.707 120.595C303.484 120.721 303.249 120.827 303.001 120.913C302.982 120.906 302.965 120.895 302.952 120.881C302.859 120.926 302.771 120.979 302.689 121.04C302.676 121.025 302.659 121.015 302.64 121.008C302.574 121.04 302.509 121.072 302.443 121.103C302.424 121.097 302.407 121.086 302.394 121.072C302.328 121.114 302.263 121.156 302.197 121.199C302.184 121.184 302.167 121.174 302.148 121.167C302.013 121.202 301.887 121.255 301.77 121.326C301.694 121.326 301.617 121.326 301.541 121.326C301.318 121.405 301.099 121.479 300.884 121.548C300.826 121.517 300.771 121.528 300.72 121.58C300.648 121.576 300.576 121.576 300.507 121.58C300.468 121.632 300.424 121.643 300.376 121.612C300.335 121.629 300.297 121.65 300.261 121.675C300.16 121.672 300.062 121.672 299.965 121.675C299.876 121.714 299.789 121.745 299.703 121.771C299.648 121.76 299.594 121.75 299.539 121.739C299.462 121.771 299.386 121.803 299.309 121.834C299.177 121.818 299.041 121.818 298.899 121.834C298.867 121.85 298.839 121.871 298.817 121.898C298.696 121.887 298.576 121.877 298.456 121.866C298.423 121.887 298.39 121.909 298.357 121.93C298.281 121.919 298.204 121.909 298.128 121.898C298.062 121.919 297.996 121.94 297.931 121.962C297.693 121.959 297.452 121.948 297.209 121.93C297.187 121.951 297.165 121.972 297.143 121.993C297.077 121.993 297.012 121.993 296.946 121.993C296.843 121.959 296.744 121.937 296.651 121.93C296.629 121.951 296.607 121.972 296.585 121.993C296.52 121.993 296.454 121.993 296.388 121.993C296.355 121.972 296.323 121.951 296.29 121.93C296.134 121.955 295.97 121.965 295.798 121.962C295.765 121.94 295.732 121.919 295.699 121.898C295.623 121.909 295.546 121.919 295.469 121.93C295.437 121.909 295.404 121.887 295.371 121.866C295.273 121.877 295.174 121.887 295.076 121.898C295.002 121.845 294.925 121.835 294.846 121.866C294.813 121.845 294.78 121.824 294.747 121.803C294.678 121.805 294.613 121.816 294.551 121.834C294.477 121.782 294.4 121.771 294.321 121.803C294.288 121.781 294.255 121.76 294.222 121.739C294.105 121.727 293.995 121.727 293.894 121.739C293.774 121.697 293.654 121.654 293.533 121.612C293.491 121.616 293.448 121.626 293.402 121.644C293.325 121.612 293.249 121.58 293.172 121.548C293.108 121.591 293.042 121.581 292.975 121.517C292.931 121.539 292.887 121.529 292.844 121.485C292.789 121.485 292.735 121.485 292.68 121.485C292.632 121.424 292.577 121.402 292.516 121.421C292.411 121.378 292.313 121.346 292.22 121.326C292.159 121.345 292.104 121.323 292.056 121.262C292.046 121.273 292.034 121.283 292.024 121.294C291.876 121.225 291.723 121.172 291.564 121.135C291.553 121.146 291.542 121.156 291.531 121.167C291.494 121.127 291.45 121.096 291.4 121.072C291.345 121.072 291.291 121.072 291.236 121.072C291.028 120.976 290.82 120.881 290.612 120.785C290.602 120.796 290.59 120.807 290.58 120.817C290.448 120.754 290.317 120.69 290.186 120.627C290.175 120.637 290.164 120.648 290.153 120.658C290.098 120.616 290.044 120.573 289.989 120.531C289.978 120.542 289.967 120.552 289.956 120.563C289.908 120.502 289.853 120.481 289.792 120.499C289.737 120.457 289.683 120.415 289.628 120.372C289.584 120.372 289.54 120.372 289.497 120.372C289.047 120.139 288.576 119.874 288.085 119.578C288.075 119.588 288.063 119.599 288.053 119.609C287.867 119.517 287.692 119.39 287.528 119.228C287.517 119.238 287.506 119.249 287.495 119.26C287.406 119.16 287.308 119.096 287.199 119.069C286.937 118.902 286.685 118.7 286.445 118.465C286.434 118.476 286.423 118.486 286.412 118.497C286.335 118.423 286.258 118.348 286.182 118.274C286.171 118.285 286.16 118.296 286.149 118.306C285.866 118.063 285.592 117.809 285.329 117.543C285.318 117.554 285.307 117.565 285.296 117.575C281.117 113.56 279.41 108.686 280.176 102.954C280.775 99.6642 282.214 96.8035 284.492 94.3716C294.611 84.5921 304.718 74.8021 314.815 65.0016C316.595 66.6742 317.859 68.6872 318.606 71.0409C319.924 75.6654 319.186 79.9247 316.391 83.8188C315.953 84.3273 315.515 84.8359 315.078 85.3445C307.126 93.0258 299.195 100.707 291.285 108.389C290.838 108.723 290.357 109.009 289.841 109.247C289.766 109.232 289.695 109.253 289.628 109.311C289.614 109.296 289.598 109.286 289.579 109.279C289.491 109.311 289.404 109.343 289.316 109.374C289.162 109.351 289.014 109.351 288.873 109.374C288.84 109.353 288.807 109.332 288.775 109.311C288.627 109.325 288.496 109.261 288.381 109.12C287.32 111.753 286.232 114.386 285.115 117.019C285.121 117.035 285.126 117.051 285.132 117.067C285.318 117.007 285.482 116.932 285.624 116.844C285.638 116.859 285.654 116.869 285.673 116.876C285.774 116.835 285.867 116.782 285.952 116.717C286.077 116.719 286.192 116.676 286.297 116.59C286.316 116.596 286.333 116.607 286.346 116.622C286.681 116.473 287.025 116.325 287.38 116.177C287.399 116.183 287.416 116.194 287.429 116.208C287.538 116.146 287.647 116.082 287.757 116.018C287.878 116.024 287.987 115.981 288.085 115.89C288.193 115.904 288.302 115.862 288.414 115.763C288.549 115.759 288.692 115.705 288.84 115.604C288.851 115.615 288.862 115.626 288.873 115.636C289.208 115.488 289.552 115.34 289.907 115.191C289.926 115.198 289.943 115.208 289.956 115.223C290.065 115.159 290.175 115.096 290.284 115.032C290.406 115.038 290.515 114.995 290.612 114.905C290.626 114.92 290.642 114.93 290.662 114.937C290.768 114.888 290.872 114.835 290.973 114.778C290.984 114.788 290.995 114.799 291.006 114.81C291.148 114.718 291.279 114.665 291.4 114.651C291.501 114.594 291.605 114.541 291.712 114.492C291.731 114.499 291.748 114.509 291.761 114.524C291.988 114.456 292.207 114.35 292.417 114.206C292.538 114.212 292.647 114.17 292.746 114.079C292.875 114.081 293.006 114.028 293.139 113.92C293.194 113.955 293.244 113.944 293.287 113.888C293.122 113.683 293.056 113.45 293.09 113.189C293.096 113.072 293.101 112.956 293.107 112.839C293.372 111.958 293.859 111.222 294.567 110.63C296.919 108.31 299.315 105.989 301.754 103.669C303.822 101.624 305.922 99.5898 308.055 97.5661C310.122 95.5213 312.223 93.487 314.356 91.4632C314.717 91.0713 315.122 90.6791 315.57 90.2871C317.374 88.3994 319.518 86.9744 322.002 86.012C322.082 85.9894 322.159 85.9576 322.232 85.9166C322.252 85.9233 322.268 85.9338 322.281 85.9484C322.378 85.882 322.466 85.8289 322.544 85.7895C322.626 85.8092 322.702 85.7879 322.774 85.7259C322.785 85.7364 322.796 85.7472 322.807 85.7577C322.878 85.6957 322.954 85.6744 323.036 85.6941C323.107 85.6321 323.184 85.6108 323.266 85.6305C323.321 85.5606 323.387 85.5393 323.463 85.567C323.53 85.5091 323.601 85.4878 323.676 85.5034C323.713 85.4675 323.757 85.4462 323.807 85.4398C323.818 85.4821 323.829 85.4821 323.84 85.4398C324.01 85.4144 324.18 85.3616 324.349 85.2809C324.421 85.2847 324.493 85.2847 324.562 85.2809C324.706 85.2284 324.842 85.1862 324.972 85.1538C325.027 85.1642 325.082 85.175 325.137 85.1855C325.172 85.1255 325.216 85.1147 325.268 85.1538C325.353 85.1283 325.441 85.0965 325.53 85.0584C325.585 85.0689 325.64 85.0797 325.694 85.0902C325.716 85.0689 325.738 85.0479 325.76 85.0266C325.815 85.0371 325.869 85.0479 325.924 85.0584C325.957 85.0371 325.99 85.0161 326.023 84.9948C326.16 84.9761 326.291 84.9761 326.416 84.9948C326.449 84.9735 326.482 84.9526 326.515 84.9313C326.599 84.95 326.687 84.9605 326.777 84.963C326.799 84.9417 326.821 84.9208 326.843 84.8995C327.2 84.8712 327.551 84.8712 327.893 84.8995C327.926 84.8782 327.959 84.8572 327.992 84.8359C328.211 84.8782 328.429 84.8782 328.648 84.8359C328.681 84.8572 328.714 84.8782 328.747 84.8995C328.947 84.8969 329.144 84.8861 329.337 84.8677C329.37 84.889 329.403 84.91 329.436 84.9313C329.561 84.937 329.693 84.9262 329.829 84.8995C329.862 84.9208 329.895 84.9417 329.928 84.963C330.101 84.971 330.276 84.971 330.453 84.963C330.527 85.0155 330.603 85.0263 330.683 84.9948C330.726 85.0387 330.77 85.0492 330.814 85.0266C330.947 85.0717 331.078 85.1035 331.208 85.122C331.252 85.0994 331.296 85.1099 331.339 85.1538C331.419 85.1223 331.495 85.1331 331.569 85.1855C331.58 85.1751 331.591 85.1642 331.602 85.1538C331.694 85.1741 331.793 85.2059 331.897 85.2491C331.941 85.2265 331.985 85.237 332.028 85.2809C332.039 85.2704 332.05 85.2596 332.061 85.2491C332.225 85.3022 332.389 85.355 332.553 85.408C332.618 85.3651 332.683 85.3756 332.75 85.4398C332.805 85.4398 332.86 85.4398 332.914 85.4398C333.122 85.5139 333.33 85.5883 333.538 85.6623C333.599 85.6436 333.654 85.6649 333.702 85.7259C333.757 85.7259 333.811 85.7259 333.866 85.7259C333.965 85.779 334.063 85.8317 334.161 85.8848C334.172 85.8743 334.183 85.8635 334.194 85.853C334.269 85.9093 334.345 85.9306 334.424 85.9166C334.522 85.9697 334.621 86.0225 334.719 86.0755C334.73 86.065 334.741 86.0542 334.752 86.0438C334.8 86.1048 334.855 86.1261 334.916 86.1073C334.971 86.1496 335.026 86.1922 335.08 86.2345C335.091 86.224 335.102 86.2132 335.113 86.2027C335.249 86.2659 335.391 86.34 335.54 86.4252C335.551 86.4147 335.562 86.4039 335.573 86.3934C335.627 86.4357 335.682 86.4783 335.737 86.5205C335.748 86.51 335.759 86.4992 335.769 86.4888C335.824 86.531 335.879 86.5736 335.934 86.6159C335.944 86.6054 335.955 86.5946 335.966 86.5841C336.021 86.6264 336.076 86.669 336.13 86.7113C336.141 86.7008 336.152 86.69 336.163 86.6795C336.295 86.7643 336.426 86.8489 336.557 86.9338C336.608 86.916 336.652 86.9372 336.688 86.9973C336.774 87.0021 336.851 87.0447 336.918 87.1245C336.929 87.114 336.94 87.1032 336.951 87.0927C337.115 87.2093 337.279 87.3257 337.443 87.4423C337.454 87.4318 337.465 87.421 337.476 87.4105C337.85 87.6798 338.233 87.955 338.625 88.237C338.636 88.2265 338.647 88.2157 338.657 88.2052C338.808 88.3543 338.966 88.4922 339.133 88.6184C339.144 88.6607 339.155 88.6607 339.166 88.6184C343.659 92.4616 345.655 97.293 345.155 103.113C344.634 107.004 342.982 110.299 340.2 112.998C330.256 122.618 320.312 132.239 310.369 141.859C307.131 138.601 305.687 134.691 306.037 130.13C306.433 126.774 307.79 123.913 310.106 121.548C316.44 115.424 322.774 109.3 329.107 103.176C329.282 103.002 329.44 102.811 329.583 102.604C330.976 101.267 332.366 99.9265 333.751 98.5832C334.001 98.3874 334.253 98.1916 334.506 97.9952C334.766 97.8613 335.023 97.7237 335.277 97.5819C335.291 97.5966 335.307 97.6071 335.326 97.6137C335.454 97.5559 335.58 97.5028 335.704 97.4548C335.762 97.486 335.817 97.4755 335.868 97.423C335.914 97.4405 335.958 97.451 335.999 97.4548C336.059 97.3931 336.124 97.3718 336.196 97.3912C336.229 97.4125 336.262 97.4335 336.295 97.4548C336.382 97.4125 336.47 97.4125 336.557 97.4548C336.66 97.5127 336.758 97.5762 336.852 97.6455C337.952 95.0064 339.052 92.3681 340.151 89.7309C340.14 89.7204 340.129 89.7096 340.118 89.6991C339.937 89.7694 339.751 89.8542 339.56 89.9534C339.516 89.9089 339.489 89.9194 339.478 89.9852C339.467 89.9747 339.456 89.9639 339.445 89.9534C339.349 90.0023 339.256 90.0554 339.166 90.1123C339.03 90.1222 338.904 90.1749 338.789 90.2712C338.757 90.2309 338.729 90.2309 338.707 90.2712Z" stroke="url(#paint1_linear_792_1655)" stroke-width="2" mask="url(#path-2-outside-1_792_1655)"/>
</g>
<rect x="238.527" y="13" width="123.278" height="40.7507" rx="20.3754" transform="rotate(4.9657 238.527 13)" fill="#FF4747"/>
<circle cx="258.945" cy="35.2009" r="9.42084" transform="rotate(4.9657 258.945 35.2009)" fill="white"/>
<path d="M296.227 45.9268L295.933 49.3203L281.72 48.0854L283.672 25.6232L287.688 25.9721L286.031 45.0409L296.227 45.9268ZM301.872 49.8363L297.856 49.4874L299.808 27.0251L303.824 27.3741L301.872 49.8363ZM315.735 51.0408L311.127 50.6405L305.264 27.4993L309.685 27.8834L313.806 46.5287L313.899 46.5369L321.173 28.8815L325.501 29.2575L315.735 51.0408ZM339.824 49.7147L339.529 53.1082L324.99 51.8449L326.942 29.3827L341.481 30.6459L341.186 34.0394L330.663 33.1251L330.135 39.196L340.082 40.0602L339.805 43.2513L329.858 42.3871L329.301 48.8004L339.824 49.7147Z" fill="white"/>
</g>
<defs>
<linearGradient id="paint0_linear_792_1655" x1="345" y1="97" x2="29.9632" y2="-60.0899" gradientUnits="userSpaceOnUse">
<stop stop-color="#693232"/>
<stop offset="0.5" stop-color="#9F4B4C"/>
</linearGradient>
<linearGradient id="paint1_linear_792_1655" x1="297.73" y1="133.859" x2="350.73" y2="19.3594" gradientUnits="userSpaceOnUse">
<stop stop-color="#A25051"/>
<stop offset="1" stop-color="white" stop-opacity="0"/>
</linearGradient>
<clipPath id="clip0_792_1655">
<rect width="345" height="97" rx="20" fill="white"/>
</clipPath>
</defs>
</svg>
