<svg width="184" height="36" viewBox="0 0 184 36" fill="none" xmlns="http://www.w3.org/2000/svg">
<path d="M8.72656 29.332C3.51172 29.332 0.132812 25.2109 0.132812 18.6289C0.132812 12.0859 3.51172 7.94531 8.72656 7.94531C11.6953 7.94531 14.0391 9.48828 15.1328 11.7734H15.25V0.816406H20.1133V29H15.3477V25.4648H15.2695C14.1367 27.7891 11.7539 29.332 8.72656 29.332ZM10.1914 11.9492C7.06641 11.9492 5.11328 14.5469 5.11328 18.6484C5.11328 22.7695 7.04688 25.3477 10.1914 25.3477C13.2578 25.3477 15.2695 22.75 15.2695 18.6484C15.2695 14.5859 13.2578 11.9492 10.1914 11.9492ZM30.7211 11.6367C27.9867 11.6367 26.0141 13.7266 25.8188 16.6172H35.4867C35.3891 13.6875 33.5141 11.6367 30.7211 11.6367ZM35.5063 22.8086H40.057C39.432 26.7148 35.7992 29.4102 30.8969 29.4102C24.6859 29.4102 20.9359 25.3281 20.9359 18.7266C20.9359 12.1836 24.725 7.86719 30.7016 7.86719C36.5805 7.86719 40.2523 11.9492 40.2523 18.2383V19.8203H25.7797V20.1133C25.7797 23.4336 27.8109 25.6602 30.9945 25.6602C33.2602 25.6602 34.9789 24.5273 35.5063 22.8086ZM52.3641 7.94531C57.618 7.94531 60.9578 12.0273 60.9578 18.6484C60.9578 25.25 57.6375 29.332 52.4422 29.332C49.4344 29.332 47.0906 27.8867 45.9578 25.5625H45.8602V35.8164H40.9969V8.29688H45.743V11.8711H45.8406C47.0125 9.46875 49.3563 7.94531 52.3641 7.94531ZM50.8797 25.3477C54.0242 25.3477 55.9773 22.75 55.9773 18.6484C55.9773 14.5664 54.0242 11.9492 50.8797 11.9492C47.8523 11.9492 45.8406 14.625 45.8211 18.6484C45.8406 22.7109 47.8523 25.3477 50.8797 25.3477ZM69.2414 25.6602C71.9953 25.6602 74.2023 23.8242 74.2023 21.3242V19.7422L69.4172 20.0352C67.0734 20.1914 65.7258 21.2461 65.7258 22.8867C65.7258 24.5859 67.132 25.6602 69.2414 25.6602ZM67.7766 29.332C63.7727 29.332 60.8625 26.8125 60.8625 23.082C60.8625 19.4102 63.6945 17.2031 68.7336 16.8906L74.2023 16.5781V15.0938C74.2023 12.9258 72.7375 11.6758 70.3352 11.6758C68.0305 11.6758 66.5656 12.7891 66.2531 14.5078H61.7414C61.9562 10.6406 65.257 7.86719 70.5305 7.86719C75.6672 7.86719 79.007 10.582 79.007 14.7422V29H74.3195V25.6992H74.2219C73.0305 27.9453 70.4328 29.332 67.7766 29.332ZM80.5328 29V8.29688H85.2008V11.9102H85.2984C86.0016 9.39062 87.818 7.94531 90.2594 7.94531C90.8844 7.94531 91.4313 8.0625 91.7828 8.14062V12.5352C91.3727 12.3789 90.6305 12.2617 89.8102 12.2617C87.0563 12.2617 85.3961 14.0391 85.3961 16.9492V29H80.5328ZM93.2305 3.45312H98.0938V8.29688H102V12.0469H98.0938V22.8086C98.0938 24.5078 98.875 25.2891 100.594 25.2891C101.043 25.2891 101.668 25.25 101.98 25.1914V28.9023C101.453 29.0195 100.496 29.0977 99.4609 29.0977C94.9883 29.0977 93.2305 27.5156 93.2305 23.4922V12.0469H90.2617V8.29688H93.2305V3.45312ZM102.92 29V8.29688H107.588V11.8906H107.686C108.584 9.48828 110.772 7.90625 113.584 7.90625C116.514 7.90625 118.604 9.41016 119.366 12.0664H119.483C120.479 9.50781 122.94 7.90625 125.928 7.90625C130.01 7.90625 132.686 10.6602 132.686 14.8008V29H127.823V15.9922C127.823 13.4531 126.495 12.0078 124.112 12.0078C121.768 12.0078 120.166 13.7266 120.166 16.207V29H115.44V15.7383C115.44 13.4336 114.034 12.0078 111.768 12.0078C109.424 12.0078 107.784 13.8242 107.784 16.3242V29H102.92ZM143.118 11.6367C140.384 11.6367 138.411 13.7266 138.216 16.6172H147.884C147.786 13.6875 145.911 11.6367 143.118 11.6367ZM147.903 22.8086H152.454C151.829 26.7148 148.196 29.4102 143.294 29.4102C137.083 29.4102 133.333 25.3281 133.333 18.7266C133.333 12.1836 137.122 7.86719 143.098 7.86719C148.977 7.86719 152.649 11.9492 152.649 18.2383V19.8203H138.177V20.1133C138.177 23.4336 140.208 25.6602 143.391 25.6602C145.657 25.6602 147.376 24.5273 147.903 22.8086ZM153.394 29V8.29688H158.062V11.8516H158.159C159.273 9.39062 161.48 7.90625 164.663 7.90625C169.234 7.90625 171.831 10.8359 171.831 15.6211V29H166.968V16.5977C166.968 13.668 165.601 12.0273 162.827 12.0273C160.034 12.0273 158.257 14.0391 158.257 17.0078V29H153.394ZM174.685 3.45312H179.548V8.29688H183.455V12.0469H179.548V22.8086C179.548 24.5078 180.33 25.2891 182.048 25.2891C182.498 25.2891 183.123 25.25 183.435 25.1914V28.9023C182.908 29.0195 181.951 29.0977 180.916 29.0977C176.443 29.0977 174.685 27.5156 174.685 23.4922V12.0469H171.716V8.29688H174.685V3.45312Z" fill="white"/>
</svg>
